%TF.GenerationSoftware,KiCad,Pcbnew,9.0.7-9.0.7~ubuntu24.04.1*%
%TF.CreationDate,2026-05-07T22:53:50+09:00*%
%TF.ProjectId,singapore-board,73696e67-6170-46f7-9265-2d626f617264,rev?*%
%TF.SameCoordinates,Original*%
%TF.FileFunction,Profile,NP*%
%FSLAX46Y46*%
G04 Gerber Fmt 4.6, Leading zero omitted, Abs format (unit mm)*
G04 Created by KiCad (PCBNEW 9.0.7-9.0.7~ubuntu24.04.1) date 2026-05-07 22:53:50*
%MOMM*%
%LPD*%
G01*
G04 APERTURE LIST*
%TA.AperFunction,Profile*%
%ADD10C,0.050000*%
%TD*%
G04 APERTURE END LIST*
D10*
%TO.C,G\u002A\u002A\u002A*%
X103690000Y-98340000D02*
X103720000Y-97860000D01*
X103690000Y-98770000D02*
X103690000Y-98340000D01*
X103690000Y-99400000D02*
X103690000Y-98770000D01*
X103690000Y-99840000D02*
X103690000Y-99400000D01*
X103710000Y-100480000D02*
X103690000Y-99840000D01*
X103720000Y-97860000D02*
X103740000Y-97580000D01*
X103740000Y-97580000D02*
X103800000Y-97270000D01*
X103790000Y-101270000D02*
X103710000Y-100480000D01*
X103800000Y-97270000D02*
X103910000Y-96860000D01*
X103910000Y-96860000D02*
X104020000Y-96490000D01*
X103910000Y-102000000D02*
X103790000Y-101270000D01*
X104020000Y-96490000D02*
X104160000Y-95990000D01*
X104060000Y-102660000D02*
X103910000Y-102000000D01*
X104160000Y-95990000D02*
X104480000Y-95180000D01*
X104280000Y-103290000D02*
X104060000Y-102660000D01*
X104480000Y-95180000D02*
X104850000Y-94450000D01*
X104560000Y-103900000D02*
X104280000Y-103290000D01*
X104850000Y-94450000D02*
X105430000Y-93570000D01*
X105000000Y-104680000D02*
X104560000Y-103900000D01*
X105430000Y-93570000D02*
X106030000Y-92810000D01*
X105600000Y-105510000D02*
X105000000Y-104680000D01*
X106030000Y-92810000D02*
X106810000Y-91990000D01*
X106210000Y-106220000D02*
X105600000Y-105510000D01*
X106780000Y-106770000D02*
X106210000Y-106220000D01*
X106810000Y-91990000D02*
X107570000Y-91330000D01*
X107250000Y-107140000D02*
X106780000Y-106770000D01*
X107550000Y-109310000D02*
X107610000Y-108710000D01*
X107550000Y-109590000D02*
X107550000Y-109310000D01*
X107550000Y-110720000D02*
X107550000Y-109590000D01*
X107570000Y-91330000D02*
X108460000Y-90690000D01*
X107600000Y-111440000D02*
X107550000Y-110720000D01*
X107610000Y-108710000D02*
X107670000Y-108120000D01*
X107670000Y-108120000D02*
X107700000Y-107710000D01*
X107680000Y-111990000D02*
X107600000Y-111440000D01*
X107700000Y-107450000D02*
X107250000Y-107140000D01*
X107700000Y-107710000D02*
X107700000Y-107450000D01*
X107790000Y-112550000D02*
X107680000Y-111990000D01*
X107930000Y-113180000D02*
X107790000Y-112550000D01*
X108260000Y-114230000D02*
X107930000Y-113180000D01*
X108460000Y-90690000D02*
X109340000Y-90160000D01*
X108620000Y-115130000D02*
X108260000Y-114230000D01*
X108660000Y-122540000D02*
X108710000Y-121920000D01*
X108660000Y-122840000D02*
X108660000Y-122540000D01*
X108660000Y-123080000D02*
X108660000Y-122840000D01*
X108660000Y-123940000D02*
X108660000Y-123080000D01*
X108710000Y-121920000D02*
X108770000Y-120870000D01*
X108710000Y-125020000D02*
X108660000Y-123940000D01*
X108710000Y-125320000D02*
X108710000Y-125020000D01*
X108770000Y-120870000D02*
X108940000Y-119680000D01*
X108770000Y-125980000D02*
X108710000Y-125320000D01*
X108840000Y-126470000D02*
X108770000Y-125980000D01*
X108940000Y-119680000D02*
X109100000Y-118800000D01*
X109010000Y-127360000D02*
X108840000Y-126470000D01*
X109100000Y-118800000D02*
X109260000Y-118050000D01*
X109130000Y-116210000D02*
X108620000Y-115130000D01*
X109160000Y-128040000D02*
X109010000Y-127360000D01*
X109260000Y-118050000D02*
X109420000Y-117310000D01*
X109340000Y-90160000D02*
X110360000Y-89660000D01*
X109420000Y-117310000D02*
X109500000Y-116960000D01*
X109440000Y-129080000D02*
X109160000Y-128040000D01*
X109500000Y-116960000D02*
X109130000Y-116210000D01*
X109680000Y-129910000D02*
X109440000Y-129080000D01*
X109910000Y-130530000D02*
X109680000Y-129910000D01*
X110210000Y-131350000D02*
X109910000Y-130530000D01*
X110360000Y-89660000D02*
X111380000Y-89250000D01*
X110480000Y-131950000D02*
X110210000Y-131350000D01*
X110770000Y-132610000D02*
X110480000Y-131950000D01*
X111380000Y-89250000D02*
X112420000Y-88940000D01*
X111500000Y-133990000D02*
X110770000Y-132610000D01*
X112250000Y-135230000D02*
X111500000Y-133990000D01*
X112420000Y-88940000D02*
X113500000Y-88700000D01*
X112870000Y-136140000D02*
X112250000Y-135230000D01*
X113500000Y-88700000D02*
X114010000Y-88630000D01*
X113520000Y-137020000D02*
X112870000Y-136140000D01*
X114010000Y-88630000D02*
X114440000Y-88580000D01*
X114380000Y-138090000D02*
X113520000Y-137020000D01*
X114440000Y-88580000D02*
X115000000Y-88580000D01*
X115000000Y-88580000D02*
X115550000Y-88580000D01*
X115360000Y-139210000D02*
X114380000Y-138090000D01*
X115550000Y-88580000D02*
X116350000Y-88580000D01*
X116350000Y-88580000D02*
X116770000Y-88600000D01*
X116410000Y-140320000D02*
X115360000Y-139210000D01*
X116770000Y-88600000D02*
X117170000Y-88660000D01*
X117170000Y-88660000D02*
X117690000Y-88760000D01*
X117230000Y-141120000D02*
X116410000Y-140320000D01*
X117690000Y-88760000D02*
X118310000Y-88900000D01*
X117900000Y-141740000D02*
X117230000Y-141120000D01*
X118310000Y-88900000D02*
X119130000Y-89150000D01*
X118890000Y-142590000D02*
X117900000Y-141740000D01*
X119130000Y-89150000D02*
X119650000Y-89320000D01*
X119420000Y-143030000D02*
X118890000Y-142590000D01*
X119650000Y-89320000D02*
X120210000Y-88780000D01*
X120210000Y-88780000D02*
X121500000Y-87530000D01*
X120310000Y-143690000D02*
X119420000Y-143030000D01*
X121310000Y-144360000D02*
X120310000Y-143690000D01*
X121500000Y-87530000D02*
X122400000Y-86720000D01*
X122170000Y-144870000D02*
X121310000Y-144360000D01*
X122400000Y-86720000D02*
X123150000Y-86120000D01*
X123120000Y-145410000D02*
X122170000Y-144870000D01*
X123150000Y-86120000D02*
X123900000Y-85550000D01*
X123900000Y-85550000D02*
X124440000Y-85160000D01*
X124440000Y-85160000D02*
X125340000Y-84560000D01*
X124460000Y-146050000D02*
X123120000Y-145410000D01*
X125340000Y-84560000D02*
X126260000Y-84010000D01*
X125960000Y-146680000D02*
X124460000Y-146050000D01*
X126260000Y-84010000D02*
X127370000Y-83390000D01*
X127370000Y-83390000D02*
X128810000Y-82690000D01*
X127480000Y-147210000D02*
X125960000Y-146680000D01*
X128810000Y-82690000D02*
X129230000Y-82490000D01*
X129030000Y-147670000D02*
X127480000Y-147210000D01*
X129230000Y-82490000D02*
X130230000Y-82080000D01*
X130230000Y-82080000D02*
X130910000Y-81800000D01*
X130690000Y-148060000D02*
X129030000Y-147670000D01*
X130910000Y-81800000D02*
X132720000Y-81180000D01*
X132350000Y-148380000D02*
X130690000Y-148060000D01*
X132720000Y-81180000D02*
X134350000Y-80730000D01*
X133320000Y-148520000D02*
X132350000Y-148380000D01*
X134350000Y-80730000D02*
X136120000Y-80350000D01*
X134640000Y-148700000D02*
X133320000Y-148520000D01*
X136120000Y-80350000D02*
X137890000Y-80060000D01*
X136220000Y-148840000D02*
X134640000Y-148700000D01*
X137460000Y-148910000D02*
X136220000Y-148840000D01*
X137890000Y-80060000D02*
X139400000Y-79910000D01*
X138750000Y-148910000D02*
X137460000Y-148910000D01*
X139400000Y-79910000D02*
X139840000Y-79910000D01*
X139840000Y-79910000D02*
X140840000Y-79910000D01*
X140340000Y-148910000D02*
X138750000Y-148910000D01*
X140840000Y-79910000D02*
X143090000Y-79910000D01*
X142230000Y-148850000D02*
X140340000Y-148910000D01*
X143090000Y-79910000D02*
X144510000Y-80000000D01*
X143410000Y-148770000D02*
X142230000Y-148850000D01*
X144340000Y-148680000D02*
X143410000Y-148770000D01*
X144510000Y-80000000D02*
X146450000Y-80190000D01*
X145040000Y-148600000D02*
X144340000Y-148680000D01*
X146080000Y-148460000D02*
X145040000Y-148600000D01*
X146450000Y-80190000D02*
X147430000Y-80320000D01*
X147330000Y-148270000D02*
X146080000Y-148460000D01*
X147430000Y-80320000D02*
X149060000Y-80600000D01*
X147990000Y-148170000D02*
X147330000Y-148270000D01*
X148690000Y-148090000D02*
X147990000Y-148170000D01*
X148860000Y-148090000D02*
X148690000Y-148090000D01*
X148960000Y-148100000D02*
X148860000Y-148090000D01*
X149020000Y-148150000D02*
X148960000Y-148100000D01*
X149060000Y-80600000D02*
X150250000Y-80860000D01*
X149080000Y-148220000D02*
X149020000Y-148150000D01*
X149260000Y-148510000D02*
X149080000Y-148220000D01*
X149510000Y-148940000D02*
X149260000Y-148510000D01*
X150040000Y-149850000D02*
X149510000Y-148940000D01*
X150250000Y-80860000D02*
X151180000Y-81070000D01*
X150650000Y-150790000D02*
X150040000Y-149850000D01*
X151180000Y-81070000D02*
X151720000Y-80980000D01*
X151420000Y-151820000D02*
X150650000Y-150790000D01*
X151720000Y-80980000D02*
X153570000Y-80690000D01*
X152340000Y-152930000D02*
X151420000Y-151820000D01*
X153180000Y-153840000D02*
X152340000Y-152930000D01*
X153570000Y-80690000D02*
X156340000Y-80300000D01*
X153800000Y-154490000D02*
X153180000Y-153840000D01*
X154500000Y-155160000D02*
X153800000Y-154490000D01*
X155370000Y-155990000D02*
X154500000Y-155160000D01*
X156340000Y-80300000D02*
X159230000Y-80060000D01*
X157080000Y-157440000D02*
X155370000Y-155990000D01*
X158010000Y-158190000D02*
X157080000Y-157440000D01*
X159230000Y-80060000D02*
X160330000Y-80000000D01*
X159290000Y-159100000D02*
X158010000Y-158190000D01*
X160330000Y-80000000D02*
X162460000Y-79950000D01*
X161300000Y-160440000D02*
X159290000Y-159100000D01*
X162460000Y-79950000D02*
X165130000Y-79950000D01*
X162560000Y-161220000D02*
X161300000Y-160440000D01*
X163420000Y-161720000D02*
X162560000Y-161220000D01*
X163880000Y-161930000D02*
X163420000Y-161720000D01*
X164150000Y-161970000D02*
X163880000Y-161930000D01*
X164460000Y-161930000D02*
X164150000Y-161970000D01*
X164760000Y-161810000D02*
X164460000Y-161930000D01*
X165030000Y-161650000D02*
X164760000Y-161810000D01*
X165130000Y-79950000D02*
X166220000Y-79950000D01*
X165260000Y-161400000D02*
X165030000Y-161650000D01*
X165440000Y-160960000D02*
X165260000Y-161400000D01*
X165540000Y-160170000D02*
X165440000Y-160960000D01*
X165620000Y-159570000D02*
X165540000Y-160170000D01*
X165740000Y-158570000D02*
X165620000Y-159570000D01*
X165860000Y-157910000D02*
X165740000Y-158570000D01*
X166010000Y-157310000D02*
X165860000Y-157910000D01*
X166190000Y-156720000D02*
X166010000Y-157310000D01*
X166220000Y-79950000D02*
X168060000Y-80040000D01*
X166380000Y-156230000D02*
X166190000Y-156720000D01*
X166610000Y-155690000D02*
X166380000Y-156230000D01*
X166980000Y-154910000D02*
X166610000Y-155690000D01*
X167110000Y-154670000D02*
X166980000Y-154910000D01*
X167510000Y-153970000D02*
X167110000Y-154670000D01*
X167610000Y-153810000D02*
X167510000Y-153970000D01*
X168060000Y-80040000D02*
X169330000Y-80160000D01*
X168100000Y-153060000D02*
X167610000Y-153810000D01*
X168210000Y-152910000D02*
X168100000Y-153060000D01*
X168790000Y-152120000D02*
X168210000Y-152910000D01*
X169330000Y-80160000D02*
X172170000Y-80570000D01*
X169530000Y-151220000D02*
X168790000Y-152120000D01*
X170430000Y-150230000D02*
X169530000Y-151220000D01*
X171200000Y-149440000D02*
X170430000Y-150230000D01*
X172020000Y-148640000D02*
X171200000Y-149440000D01*
X172170000Y-80570000D02*
X174210000Y-81010000D01*
X172770000Y-147930000D02*
X172020000Y-148640000D01*
X173660000Y-147140000D02*
X172770000Y-147930000D01*
X174210000Y-81010000D02*
X176320000Y-81620000D01*
X174270000Y-146630000D02*
X173660000Y-147140000D01*
X175510000Y-145670000D02*
X174270000Y-146630000D01*
X176180000Y-145170000D02*
X175510000Y-145670000D01*
X176320000Y-81620000D02*
X177740000Y-82090000D01*
X177500000Y-144220000D02*
X176180000Y-145170000D01*
X177740000Y-82090000D02*
X179600000Y-82800000D01*
X178720000Y-143360000D02*
X177500000Y-144220000D01*
X179600000Y-82800000D02*
X181160000Y-83500000D01*
X180740000Y-141960000D02*
X178720000Y-143360000D01*
X181160000Y-83500000D02*
X182850000Y-84360000D01*
X182850000Y-84360000D02*
X183910000Y-84960000D01*
X183640000Y-139910000D02*
X180740000Y-141960000D01*
X183910000Y-84960000D02*
X185130000Y-85730000D01*
X184780000Y-139070000D02*
X183640000Y-139910000D01*
X185130000Y-85730000D02*
X186110000Y-86390000D01*
X185800000Y-138320000D02*
X184780000Y-139070000D01*
X186110000Y-86390000D02*
X187320000Y-87290000D01*
X187320000Y-87290000D02*
X188590000Y-88320000D01*
X188190000Y-136390000D02*
X185800000Y-138320000D01*
X188590000Y-88320000D02*
X189770000Y-89410000D01*
X189770000Y-89410000D02*
X190970000Y-90630000D01*
X190270000Y-134490000D02*
X188190000Y-136390000D01*
X190970000Y-90630000D02*
X191890000Y-91680000D01*
X191450000Y-133270000D02*
X190270000Y-134490000D01*
X191890000Y-91680000D02*
X192500000Y-92410000D01*
X192470000Y-132160000D02*
X191450000Y-133270000D01*
X192500000Y-92410000D02*
X192980000Y-93050000D01*
X192980000Y-93050000D02*
X193580000Y-93890000D01*
X193580000Y-93890000D02*
X194360000Y-95060000D01*
X193820000Y-130460000D02*
X192470000Y-132160000D01*
X194360000Y-95060000D02*
X195270000Y-96610000D01*
X194690000Y-129240000D02*
X193820000Y-130460000D01*
X195270000Y-96610000D02*
X195660000Y-97360000D01*
X195430000Y-128090000D02*
X194690000Y-129240000D01*
X195660000Y-97360000D02*
X196055200Y-98120000D01*
X196050000Y-98120000D02*
X196930000Y-100130000D01*
X196370000Y-126380000D02*
X195430000Y-128090000D01*
X196930000Y-100130000D02*
X197480000Y-101620000D01*
X197130000Y-124730000D02*
X196370000Y-126380000D01*
X197480000Y-101620000D02*
X198120000Y-103800000D01*
X197780000Y-123000000D02*
X197130000Y-124730000D01*
X198120000Y-103800000D02*
X198510000Y-105430000D01*
X198460000Y-120740000D02*
X197780000Y-123000000D01*
X198510000Y-105430000D02*
X198790000Y-106860000D01*
X198790000Y-106860000D02*
X199100000Y-109140000D01*
X198950000Y-118190000D02*
X198460000Y-120740000D01*
X199100000Y-109140000D02*
X199210000Y-110510000D01*
X199170000Y-116160000D02*
X198950000Y-118190000D01*
X199210000Y-110510000D02*
X199210000Y-111160000D01*
X199210000Y-111160000D02*
X199280000Y-112720000D01*
X199280000Y-112720000D02*
X199280000Y-113970000D01*
X199280000Y-113970000D02*
X199280000Y-114190000D01*
X199280000Y-114190000D02*
X199170000Y-116160000D01*
%TD*%
M02*
