%TF.GenerationSoftware,KiCad,Pcbnew,9.0.7-9.0.7~ubuntu24.04.1*%
%TF.CreationDate,2026-05-07T22:53:49+09:00*%
%TF.ProjectId,singapore-board,73696e67-6170-46f7-9265-2d626f617264,rev?*%
%TF.SameCoordinates,Original*%
%TF.FileFunction,Copper,L2,Bot*%
%TF.FilePolarity,Positive*%
%FSLAX46Y46*%
G04 Gerber Fmt 4.6, Leading zero omitted, Abs format (unit mm)*
G04 Created by KiCad (PCBNEW 9.0.7-9.0.7~ubuntu24.04.1) date 2026-05-07 22:53:49*
%MOMM*%
%LPD*%
G01*
G04 APERTURE LIST*
G04 Aperture macros list*
%AMRoundRect*
0 Rectangle with rounded corners*
0 $1 Rounding radius*
0 $2 $3 $4 $5 $6 $7 $8 $9 X,Y pos of 4 corners*
0 Add a 4 corners polygon primitive as box body*
4,1,4,$2,$3,$4,$5,$6,$7,$8,$9,$2,$3,0*
0 Add four circle primitives for the rounded corners*
1,1,$1+$1,$2,$3*
1,1,$1+$1,$4,$5*
1,1,$1+$1,$6,$7*
1,1,$1+$1,$8,$9*
0 Add four rect primitives between the rounded corners*
20,1,$1+$1,$2,$3,$4,$5,0*
20,1,$1+$1,$4,$5,$6,$7,0*
20,1,$1+$1,$6,$7,$8,$9,0*
20,1,$1+$1,$8,$9,$2,$3,0*%
G04 Aperture macros list end*
%TA.AperFunction,ComponentPad*%
%ADD10C,1.400000*%
%TD*%
%TA.AperFunction,ComponentPad*%
%ADD11R,1.800000X1.800000*%
%TD*%
%TA.AperFunction,ComponentPad*%
%ADD12C,1.800000*%
%TD*%
%TA.AperFunction,ComponentPad*%
%ADD13R,1.700000X1.700000*%
%TD*%
%TA.AperFunction,ComponentPad*%
%ADD14C,1.700000*%
%TD*%
%TA.AperFunction,SMDPad,CuDef*%
%ADD15RoundRect,0.150000X0.825000X0.150000X-0.825000X0.150000X-0.825000X-0.150000X0.825000X-0.150000X0*%
%TD*%
%TA.AperFunction,SMDPad,CuDef*%
%ADD16R,5.000000X5.000000*%
%TD*%
%TA.AperFunction,SMDPad,CuDef*%
%ADD17R,4.000000X4.000000*%
%TD*%
%TA.AperFunction,ViaPad*%
%ADD18C,0.600000*%
%TD*%
%TA.AperFunction,Conductor*%
%ADD19C,0.250000*%
%TD*%
%TA.AperFunction,Conductor*%
%ADD20C,0.600000*%
%TD*%
G04 APERTURE END LIST*
D10*
%TO.P,R2,1*%
%TO.N,Net-(U1-PA2)*%
X144920000Y-98200000D03*
%TO.P,R2,2*%
%TO.N,Net-(D2-A)*%
X150000000Y-98200000D03*
%TD*%
%TO.P,R1,1*%
%TO.N,Net-(U1-PA1)*%
X127500000Y-97800000D03*
%TO.P,R1,2*%
%TO.N,Net-(D1-A)*%
X122420000Y-97800000D03*
%TD*%
D11*
%TO.P,D2,1,K*%
%TO.N,Net-(BT1--)*%
X149900000Y-111000000D03*
D12*
%TO.P,D2,2,A*%
%TO.N,Net-(D2-A)*%
X147360000Y-111000000D03*
%TD*%
D11*
%TO.P,D1,1,K*%
%TO.N,Net-(BT1--)*%
X126000000Y-111100000D03*
D12*
%TO.P,D1,2,A*%
%TO.N,Net-(D1-A)*%
X123460000Y-111100000D03*
%TD*%
D13*
%TO.P,J1,1,Pin_1*%
%TO.N,Net-(J1-Pin_1)*%
X139160000Y-143700000D03*
D14*
%TO.P,J1,2,Pin_2*%
%TO.N,Net-(J1-Pin_2)*%
X141700000Y-143700000D03*
%TO.P,J1,3,Pin_3*%
%TO.N,Net-(BT1--)*%
X144240000Y-143700000D03*
%TD*%
D13*
%TO.P,SW1,1,A*%
%TO.N,unconnected-(SW1A-A-Pad1)*%
X139120000Y-139600000D03*
D14*
%TO.P,SW1,2,B*%
%TO.N,Net-(J1-Pin_1)*%
X141660000Y-139600000D03*
%TO.P,SW1,3,C*%
%TO.N,Net-(BT1-+)*%
X144200000Y-139600000D03*
%TD*%
D15*
%TO.P,U1,1,VCC*%
%TO.N,Net-(J1-Pin_1)*%
X137100000Y-108830000D03*
%TO.P,U1,2,PA6*%
%TO.N,unconnected-(U1-PA6-Pad2)*%
X137100000Y-110100000D03*
%TO.P,U1,3,PA7*%
%TO.N,unconnected-(U1-PA7-Pad3)*%
X137100000Y-111370000D03*
%TO.P,U1,4,PA1*%
%TO.N,Net-(U1-PA1)*%
X137100000Y-112640000D03*
%TO.P,U1,5,PA2*%
%TO.N,Net-(U1-PA2)*%
X132150000Y-112640000D03*
%TO.P,U1,6,~{RESET}/PA0*%
%TO.N,Net-(J1-Pin_2)*%
X132150000Y-111370000D03*
%TO.P,U1,7,PA3*%
%TO.N,unconnected-(U1-PA3-Pad7)*%
X132150000Y-110100000D03*
%TO.P,U1,8,GND*%
%TO.N,Net-(BT1--)*%
X132150000Y-108830000D03*
%TD*%
D16*
%TO.P,BT1,1,+*%
%TO.N,Net-(BT1-+)*%
X156250000Y-126200000D03*
X130350000Y-126200000D03*
D17*
%TO.P,BT1,2,-*%
%TO.N,Net-(BT1--)*%
X143300000Y-126200000D03*
%TD*%
D18*
%TO.N,Net-(BT1-+)*%
X139000000Y-141600000D03*
%TO.N,Net-(U1-PA2)*%
X137300000Y-114000000D03*
X134400000Y-114000000D03*
%TD*%
D19*
%TO.N,Net-(BT1--)*%
X143300000Y-121300000D02*
X143300000Y-118840000D01*
X143300000Y-118840000D02*
X149900000Y-112240000D01*
X149900000Y-112240000D02*
X149900000Y-111000000D01*
D20*
X132150000Y-108830000D02*
X133230000Y-108830000D01*
X133230000Y-108830000D02*
X134500000Y-110100000D01*
X134500000Y-110100000D02*
X134500000Y-112500000D01*
X134500000Y-112500000D02*
X143300000Y-121300000D01*
D19*
%TO.N,Net-(D2-A)*%
X150000000Y-98200000D02*
X150000000Y-108360000D01*
X150000000Y-108360000D02*
X147360000Y-111000000D01*
%TO.N,Net-(U1-PA2)*%
X139500000Y-114000000D02*
X144920000Y-108580000D01*
X144920000Y-98200000D02*
X144920000Y-108580000D01*
%TO.N,Net-(U1-PA1)*%
X127500000Y-97800000D02*
X127500000Y-101400000D01*
X127500000Y-101400000D02*
X132700000Y-106600000D01*
%TO.N,Net-(D1-A)*%
X123460000Y-111100000D02*
X123500000Y-111100000D01*
X123500000Y-111100000D02*
X122420000Y-110020000D01*
X122420000Y-110020000D02*
X122420000Y-97800000D01*
D20*
%TO.N,Net-(BT1-+)*%
X137700000Y-141600000D02*
X139000000Y-141600000D01*
X137400000Y-141300000D02*
X137700000Y-141600000D01*
X130350000Y-126200000D02*
X130350000Y-134250000D01*
X130350000Y-134250000D02*
X137400000Y-141300000D01*
%TO.N,Net-(J1-Pin_1)*%
X135400000Y-126600000D02*
X135400000Y-124200000D01*
X135400000Y-133340000D02*
X141660000Y-139600000D01*
X135400000Y-126600000D02*
X135400000Y-133340000D01*
%TO.N,Net-(BT1--)*%
X143300000Y-121300000D02*
X143300000Y-126200000D01*
D19*
X126000000Y-134100000D02*
X137000000Y-145100000D01*
X126000000Y-111100000D02*
X126000000Y-134100000D01*
X137000000Y-145100000D02*
X144000000Y-145100000D01*
X144000000Y-145100000D02*
X144240000Y-144860000D01*
X144240000Y-144860000D02*
X144240000Y-143700000D01*
D20*
%TO.N,Net-(J1-Pin_1)*%
X129400000Y-108900000D02*
X129400000Y-118200000D01*
D19*
%TO.N,Net-(U1-PA1)*%
X132700000Y-106600000D02*
X137300000Y-106600000D01*
X137300000Y-106600000D02*
X138800000Y-108100000D01*
X138800000Y-108100000D02*
X138800000Y-111914999D01*
X138800000Y-111914999D02*
X138074999Y-112640000D01*
X138074999Y-112640000D02*
X137100000Y-112640000D01*
%TO.N,Net-(U1-PA2)*%
X132150000Y-112640000D02*
X133510000Y-114000000D01*
X133510000Y-114000000D02*
X134400000Y-114000000D01*
X137300000Y-114000000D02*
X139500000Y-114000000D01*
%TO.N,Net-(J1-Pin_2)*%
X132150000Y-111370000D02*
X132120000Y-111400000D01*
X132120000Y-111400000D02*
X131000000Y-111400000D01*
X131000000Y-111400000D02*
X130400000Y-112000000D01*
X130400000Y-112000000D02*
X130400000Y-114600000D01*
X130400000Y-114600000D02*
X137874000Y-122074000D01*
X142836000Y-142564000D02*
X141700000Y-143700000D01*
X137874000Y-122074000D02*
X137874000Y-131000000D01*
X137874000Y-131000000D02*
X142836000Y-135962000D01*
X142836000Y-135962000D02*
X142836000Y-142564000D01*
D20*
%TO.N,Net-(J1-Pin_1)*%
X135400000Y-124200000D02*
X129400000Y-118200000D01*
X129400000Y-108900000D02*
X131074000Y-107226000D01*
X131074000Y-107226000D02*
X135496000Y-107226000D01*
X135496000Y-107226000D02*
X137100000Y-108830000D01*
%TO.N,Net-(BT1-+)*%
X156250000Y-126200000D02*
X156250000Y-127550000D01*
X156250000Y-127550000D02*
X144200000Y-139600000D01*
%TO.N,Net-(BT1--)*%
X143300000Y-126200000D02*
X148400000Y-126200000D01*
X148400000Y-126200000D02*
X153600000Y-121000000D01*
X161800000Y-127342081D02*
X145442081Y-143700000D01*
X153600000Y-121000000D02*
X160000000Y-121000000D01*
X160000000Y-121000000D02*
X161800000Y-122800000D01*
X145442081Y-143700000D02*
X144240000Y-143700000D01*
X161800000Y-122800000D02*
X161800000Y-127342081D01*
D19*
%TO.N,unconnected-(U1-PA6-Pad2)*%
X136200000Y-110100000D02*
X137100000Y-110100000D01*
D20*
%TO.N,Net-(J1-Pin_1)*%
X141660000Y-141200000D02*
X139160000Y-143700000D01*
X141660000Y-139600000D02*
X141660000Y-141200000D01*
%TD*%
M02*
