%TF.GenerationSoftware,KiCad,Pcbnew,9.0.7-9.0.7~ubuntu24.04.1*%
%TF.CreationDate,2026-05-07T22:53:49+09:00*%
%TF.ProjectId,singapore-board,73696e67-6170-46f7-9265-2d626f617264,rev?*%
%TF.SameCoordinates,Original*%
%TF.FileFunction,Copper,L1,Top*%
%TF.FilePolarity,Positive*%
%FSLAX46Y46*%
G04 Gerber Fmt 4.6, Leading zero omitted, Abs format (unit mm)*
G04 Created by KiCad (PCBNEW 9.0.7-9.0.7~ubuntu24.04.1) date 2026-05-07 22:53:49*
%MOMM*%
%LPD*%
G01*
G04 APERTURE LIST*
%TA.AperFunction,EtchedComponent*%
%ADD10C,0.700000*%
%TD*%
%TA.AperFunction,EtchedComponent*%
%ADD11C,0.600000*%
%TD*%
%TA.AperFunction,EtchedComponent*%
%ADD12C,0.000000*%
%TD*%
%TA.AperFunction,ComponentPad*%
%ADD13C,1.400000*%
%TD*%
%TA.AperFunction,ComponentPad*%
%ADD14R,1.800000X1.800000*%
%TD*%
%TA.AperFunction,ComponentPad*%
%ADD15C,1.800000*%
%TD*%
%TA.AperFunction,ComponentPad*%
%ADD16R,1.700000X1.700000*%
%TD*%
%TA.AperFunction,ComponentPad*%
%ADD17C,1.700000*%
%TD*%
%TA.AperFunction,ViaPad*%
%ADD18C,0.600000*%
%TD*%
%TA.AperFunction,Conductor*%
%ADD19C,0.600000*%
%TD*%
%TA.AperFunction,Conductor*%
%ADD20C,0.250000*%
%TD*%
%TA.AperFunction,Conductor*%
%ADD21C,0.200000*%
%TD*%
G04 APERTURE END LIST*
D10*
%TO.C,G\u002A\u002A\u002A*%
X128510589Y-110620589D02*
G75*
G02*
X117609411Y-110620589I-5450589J0D01*
G01*
X117609411Y-110620589D02*
G75*
G02*
X128510589Y-110620589I5450589J0D01*
G01*
D11*
X152580000Y-110630000D02*
G75*
G02*
X141103382Y-110630000I-5738309J0D01*
G01*
X141103382Y-110630000D02*
G75*
G02*
X152580000Y-110630000I5738309J0D01*
G01*
D12*
%TA.AperFunction,EtchedComponent*%
G36*
X141589913Y-79902888D02*
G01*
X142151747Y-79908648D01*
X142706397Y-79918447D01*
X143234828Y-79932084D01*
X143717999Y-79949357D01*
X144136875Y-79970066D01*
X144472416Y-79994007D01*
X144498101Y-79996335D01*
X145478683Y-80093523D01*
X146375999Y-80196644D01*
X147213930Y-80309314D01*
X148016358Y-80435149D01*
X148807165Y-80577764D01*
X149610232Y-80740775D01*
X150049987Y-80836899D01*
X151182970Y-81090121D01*
X152743700Y-80837128D01*
X153772185Y-80674407D01*
X154725118Y-80532846D01*
X155620211Y-80410959D01*
X156475172Y-80307259D01*
X157307713Y-80220258D01*
X158135543Y-80148469D01*
X158976373Y-80090407D01*
X159847913Y-80044583D01*
X160767873Y-80009512D01*
X161753964Y-79983705D01*
X162823896Y-79965677D01*
X163173607Y-79961454D01*
X164160823Y-79953617D01*
X165055442Y-79953646D01*
X165871804Y-79962274D01*
X166624248Y-79980234D01*
X167327112Y-80008260D01*
X167994735Y-80047085D01*
X168641458Y-80097442D01*
X169281617Y-80160065D01*
X169929554Y-80235686D01*
X170599606Y-80325040D01*
X170776734Y-80350254D01*
X172533330Y-80652816D01*
X174301539Y-81054177D01*
X176067051Y-81549245D01*
X177815553Y-82132928D01*
X179532736Y-82800132D01*
X181204287Y-83545768D01*
X182815895Y-84364741D01*
X184071729Y-85080893D01*
X185632884Y-86078592D01*
X187116354Y-87149571D01*
X188520900Y-88292000D01*
X189845283Y-89504046D01*
X191088267Y-90783878D01*
X192248612Y-92129664D01*
X193325081Y-93539573D01*
X194316434Y-95011771D01*
X195221434Y-96544429D01*
X196038841Y-98135714D01*
X196767419Y-99783795D01*
X197405929Y-101486839D01*
X197953131Y-103243015D01*
X198407789Y-105050491D01*
X198749223Y-106791982D01*
X198915805Y-107857657D01*
X199046721Y-108895488D01*
X199144122Y-109932491D01*
X199210158Y-110995678D01*
X199246981Y-112112065D01*
X199256926Y-113168776D01*
X199238522Y-114487027D01*
X199182313Y-115724406D01*
X199086042Y-116901149D01*
X198947449Y-118037491D01*
X198764276Y-119153666D01*
X198534265Y-120269910D01*
X198401661Y-120831645D01*
X197967893Y-122393800D01*
X197443455Y-123914035D01*
X196826514Y-125395477D01*
X196115235Y-126841253D01*
X195307787Y-128254491D01*
X194402334Y-129638319D01*
X193397044Y-130995862D01*
X192290083Y-132330249D01*
X191079619Y-133644607D01*
X190610529Y-134121096D01*
X190114282Y-134609446D01*
X189613930Y-135086798D01*
X189103266Y-135558019D01*
X188576086Y-136027973D01*
X188026182Y-136501527D01*
X187447348Y-136983546D01*
X186833379Y-137478897D01*
X186178069Y-137992443D01*
X185475212Y-138529053D01*
X184718602Y-139093590D01*
X183902032Y-139690921D01*
X183019296Y-140325912D01*
X182064190Y-141003427D01*
X181030506Y-141728334D01*
X179950656Y-142478765D01*
X179046535Y-143106314D01*
X178224481Y-143680760D01*
X177477067Y-144207969D01*
X176796869Y-144693806D01*
X176176460Y-145144135D01*
X175608414Y-145564822D01*
X175085307Y-145961731D01*
X174599712Y-146340729D01*
X174144203Y-146707679D01*
X173711355Y-147068448D01*
X173293742Y-147428899D01*
X172883939Y-147794899D01*
X172474519Y-148172312D01*
X172058057Y-148567004D01*
X171627127Y-148984839D01*
X171278340Y-149328451D01*
X170343535Y-150287632D01*
X169505013Y-151218697D01*
X168757779Y-152128583D01*
X168096838Y-153024231D01*
X167517197Y-153912581D01*
X167013860Y-154800572D01*
X166581834Y-155695144D01*
X166416741Y-156083567D01*
X166166527Y-156743544D01*
X165968264Y-157378818D01*
X165814200Y-158021772D01*
X165696589Y-158704788D01*
X165607681Y-159460248D01*
X165606985Y-159467510D01*
X165556485Y-159966385D01*
X165508745Y-160370829D01*
X165461284Y-160693455D01*
X165411623Y-160946876D01*
X165357281Y-161143706D01*
X165295779Y-161296558D01*
X165224637Y-161418046D01*
X165223026Y-161420345D01*
X165019488Y-161630356D01*
X164749784Y-161797712D01*
X164446774Y-161909226D01*
X164143318Y-161951712D01*
X163945941Y-161932816D01*
X163801262Y-161880416D01*
X163578434Y-161772717D01*
X163287134Y-161615848D01*
X162937036Y-161415936D01*
X162537816Y-161179111D01*
X162099149Y-160911500D01*
X161630711Y-160619231D01*
X161142176Y-160308432D01*
X160643220Y-159985230D01*
X160143518Y-159655755D01*
X159652745Y-159326133D01*
X159180576Y-159002494D01*
X158736687Y-158690964D01*
X158330753Y-158397672D01*
X158135864Y-158252889D01*
X156732442Y-157144264D01*
X155357688Y-155950810D01*
X154036963Y-154694820D01*
X153687891Y-154342736D01*
X152808926Y-153415413D01*
X152019473Y-152519457D01*
X151310767Y-151643490D01*
X150674041Y-150776133D01*
X150100527Y-149906010D01*
X149581459Y-149021743D01*
X149565222Y-148992308D01*
X149420256Y-148734826D01*
X149283243Y-148501988D01*
X149166830Y-148314552D01*
X149083659Y-148193273D01*
X149064005Y-148169499D01*
X149023092Y-148128172D01*
X148978482Y-148096822D01*
X148918824Y-148076158D01*
X148832767Y-148066891D01*
X148708960Y-148069729D01*
X148536053Y-148085382D01*
X148302693Y-148114559D01*
X147997531Y-148157969D01*
X147609215Y-148216322D01*
X147126395Y-148290328D01*
X147123535Y-148290767D01*
X146119388Y-148439202D01*
X145193664Y-148562576D01*
X144321126Y-148663053D01*
X143476540Y-148742797D01*
X142634670Y-148803971D01*
X141770282Y-148848738D01*
X140858139Y-148879263D01*
X140077214Y-148894880D01*
X139169807Y-148903817D01*
X138345854Y-148901204D01*
X137582148Y-148885940D01*
X136855481Y-148856925D01*
X136142645Y-148813058D01*
X135420433Y-148753236D01*
X134665636Y-148676360D01*
X134102320Y-148611433D01*
X132379063Y-148364388D01*
X130696131Y-148042441D01*
X129060874Y-147647881D01*
X127480643Y-147182996D01*
X125962787Y-146650073D01*
X124514657Y-146051401D01*
X123143602Y-145389268D01*
X122338695Y-144949718D01*
X121327900Y-144340868D01*
X120358037Y-143692351D01*
X119413625Y-142992078D01*
X118479184Y-142227962D01*
X117539234Y-141387916D01*
X116578294Y-140459851D01*
X116541335Y-140422866D01*
X115331584Y-139155375D01*
X114227274Y-137881961D01*
X113226714Y-136599698D01*
X112328214Y-135305659D01*
X111530083Y-133996915D01*
X110830631Y-132670539D01*
X110228167Y-131323605D01*
X109721002Y-129953185D01*
X109307443Y-128556352D01*
X109049377Y-127449577D01*
X108950861Y-126957331D01*
X108873045Y-126526444D01*
X108813149Y-126130940D01*
X108768395Y-125744846D01*
X108736003Y-125342188D01*
X108713194Y-124896991D01*
X108697189Y-124383281D01*
X108691022Y-124100421D01*
X108684374Y-123394253D01*
X111433237Y-123394253D01*
X111438517Y-123943582D01*
X111452200Y-124467366D01*
X111474284Y-124943955D01*
X111504767Y-125351699D01*
X111533356Y-125600843D01*
X111775713Y-126977960D01*
X112111778Y-128324892D01*
X112543061Y-129644497D01*
X113071071Y-130939633D01*
X113697316Y-132213155D01*
X114423308Y-133467922D01*
X115250553Y-134706790D01*
X116180563Y-135932617D01*
X117214845Y-137148259D01*
X118173809Y-138172312D01*
X119306851Y-139272438D01*
X120471700Y-140281075D01*
X121674226Y-141201292D01*
X122920299Y-142036158D01*
X124215790Y-142788743D01*
X125566568Y-143462115D01*
X126978504Y-144059342D01*
X128457468Y-144583495D01*
X130009330Y-145037641D01*
X131639960Y-145424850D01*
X132303641Y-145559372D01*
X132930225Y-145674167D01*
X133529938Y-145769649D01*
X134125050Y-145848134D01*
X134737833Y-145911935D01*
X135390559Y-145963370D01*
X136105500Y-146004751D01*
X136904925Y-146038395D01*
X136915611Y-146038779D01*
X137169215Y-146044709D01*
X137514313Y-146048099D01*
X137935259Y-146049140D01*
X138416407Y-146048022D01*
X138942114Y-146044934D01*
X139496734Y-146040067D01*
X140064622Y-146033611D01*
X140630132Y-146025756D01*
X141177621Y-146016692D01*
X141691442Y-146006608D01*
X142155951Y-145995696D01*
X142555502Y-145984144D01*
X142874452Y-145972143D01*
X143024472Y-145964583D01*
X143419575Y-145939234D01*
X143861460Y-145907081D01*
X144304096Y-145871694D01*
X144701450Y-145836644D01*
X144818669Y-145825378D01*
X145083771Y-145796248D01*
X145399161Y-145756853D01*
X145749035Y-145709653D01*
X146117590Y-145657106D01*
X146489020Y-145601668D01*
X146847523Y-145545797D01*
X147177293Y-145491953D01*
X147462527Y-145442592D01*
X147687421Y-145400172D01*
X147836171Y-145367150D01*
X147891953Y-145347427D01*
X147896464Y-145282386D01*
X147872443Y-145153950D01*
X147855435Y-145091243D01*
X147803699Y-144894111D01*
X147739248Y-144615838D01*
X147666992Y-144280996D01*
X147591838Y-143914159D01*
X147518695Y-143539898D01*
X147452470Y-143182788D01*
X147398071Y-142867401D01*
X147360406Y-142618309D01*
X147358286Y-142602160D01*
X147337343Y-142379863D01*
X147319376Y-142068702D01*
X147305018Y-141686962D01*
X147294902Y-141252927D01*
X147289663Y-140784881D01*
X147289433Y-140713233D01*
X150025715Y-140713233D01*
X150038983Y-141255885D01*
X150066948Y-141754703D01*
X150109622Y-142180802D01*
X150117694Y-142239451D01*
X150339751Y-143448311D01*
X150655122Y-144632101D01*
X151065451Y-145793768D01*
X151572383Y-146936261D01*
X152177562Y-148062527D01*
X152882633Y-149175517D01*
X153689240Y-150278176D01*
X154599026Y-151373455D01*
X155613638Y-152464301D01*
X156080475Y-152930698D01*
X156823515Y-153638141D01*
X157575144Y-154313024D01*
X158351149Y-154967966D01*
X159167316Y-155615588D01*
X160039430Y-156268512D01*
X160983280Y-156939357D01*
X161751010Y-157464046D01*
X162878269Y-158223044D01*
X163044452Y-157572598D01*
X163122259Y-157274165D01*
X163204760Y-156967781D01*
X163281118Y-156693198D01*
X163331366Y-156520252D01*
X163582583Y-155774258D01*
X163899269Y-154981134D01*
X164269058Y-154167424D01*
X164679585Y-153359672D01*
X165118485Y-152584422D01*
X165311119Y-152270428D01*
X165471757Y-152012716D01*
X165608720Y-151788342D01*
X165713219Y-151612089D01*
X165776467Y-151498742D01*
X165791173Y-151462851D01*
X165297378Y-151074670D01*
X164780128Y-150620369D01*
X164265055Y-150125234D01*
X163777790Y-149614554D01*
X163343966Y-149113615D01*
X163117878Y-148825437D01*
X162623351Y-148121123D01*
X162161912Y-147376923D01*
X161743648Y-146612815D01*
X161378648Y-145848774D01*
X161077001Y-145104781D01*
X160848796Y-144400811D01*
X160809998Y-144255439D01*
X160743444Y-143915015D01*
X160692626Y-143489196D01*
X160657644Y-142998615D01*
X160638600Y-142463903D01*
X160635949Y-141971518D01*
X163371684Y-141971518D01*
X163390963Y-142564136D01*
X163451435Y-143107640D01*
X163560050Y-143642033D01*
X163723760Y-144207314D01*
X163798793Y-144429738D01*
X164105129Y-145198364D01*
X164481855Y-145957641D01*
X164915505Y-146685892D01*
X165392611Y-147361435D01*
X165899707Y-147962592D01*
X166155666Y-148224030D01*
X166275219Y-148335213D01*
X166439076Y-148481644D01*
X166630088Y-148648698D01*
X166831107Y-148821748D01*
X167024982Y-148986168D01*
X167194565Y-149127332D01*
X167322708Y-149230615D01*
X167392261Y-149281389D01*
X167398698Y-149284192D01*
X167439879Y-149248375D01*
X167548977Y-149145495D01*
X167717568Y-148983706D01*
X167937225Y-148771165D01*
X168199525Y-148516028D01*
X168496043Y-148226451D01*
X168818354Y-147910589D01*
X168872326Y-147857596D01*
X169511285Y-147234527D01*
X170106412Y-146664688D01*
X170669896Y-146137958D01*
X171213927Y-145644213D01*
X171750694Y-145173333D01*
X172292389Y-144715194D01*
X172851199Y-144259675D01*
X173439316Y-143796653D01*
X174068928Y-143316006D01*
X174752226Y-142807611D01*
X175501400Y-142261347D01*
X176319067Y-141673929D01*
X177327797Y-140953375D01*
X177301013Y-140765822D01*
X177277878Y-140630198D01*
X177238471Y-140424855D01*
X177189603Y-140184732D01*
X177165177Y-140069198D01*
X177076617Y-139593206D01*
X177012739Y-139098193D01*
X176972202Y-138564287D01*
X176953670Y-137971617D01*
X176955803Y-137300313D01*
X176961222Y-137041560D01*
X176988828Y-136367746D01*
X177039803Y-135774277D01*
X177120311Y-135235716D01*
X177236516Y-134726624D01*
X177394581Y-134221565D01*
X177600670Y-133695101D01*
X177860949Y-133121794D01*
X177961053Y-132915400D01*
X178190096Y-132468964D01*
X178434501Y-132034176D01*
X178703210Y-131598073D01*
X179005168Y-131147693D01*
X179349317Y-130670073D01*
X179744601Y-130152250D01*
X180199962Y-129581261D01*
X180585935Y-129110759D01*
X180996754Y-128607265D01*
X181399535Y-128099349D01*
X181782924Y-127602091D01*
X182135570Y-127130570D01*
X182446119Y-126699867D01*
X182703218Y-126325062D01*
X182824953Y-126136708D01*
X183482388Y-124990845D01*
X184059186Y-123783166D01*
X184550329Y-122527805D01*
X184950800Y-121238894D01*
X185255578Y-119930563D01*
X185441372Y-118768565D01*
X185478502Y-118386046D01*
X185505727Y-117928531D01*
X185522832Y-117423890D01*
X185529601Y-116899991D01*
X185525817Y-116384706D01*
X185511263Y-115905903D01*
X185485723Y-115491452D01*
X185468215Y-115312236D01*
X185274357Y-114019903D01*
X184990874Y-112753994D01*
X184614799Y-111506182D01*
X184143167Y-110268139D01*
X183573010Y-109031537D01*
X182901364Y-107788048D01*
X182618538Y-107311371D01*
X182121431Y-106523335D01*
X181633260Y-105814218D01*
X181135183Y-105159432D01*
X180608357Y-104534384D01*
X180033940Y-103914486D01*
X179947608Y-103825643D01*
X179138410Y-103049719D01*
X178313097Y-102365626D01*
X177460144Y-101767207D01*
X176568029Y-101248305D01*
X175625227Y-100802763D01*
X174620216Y-100424423D01*
X173541472Y-100107130D01*
X172568773Y-99883040D01*
X172175341Y-99805617D01*
X171873022Y-99754242D01*
X171649231Y-99727899D01*
X171491383Y-99725571D01*
X171386892Y-99746240D01*
X171328860Y-99782868D01*
X171293873Y-99872385D01*
X171271375Y-100044722D01*
X171264556Y-100244873D01*
X171246540Y-100634681D01*
X171195717Y-101098987D01*
X171116922Y-101611947D01*
X171014991Y-102147715D01*
X170894762Y-102680446D01*
X170761069Y-103184293D01*
X170644475Y-103558692D01*
X170571560Y-103789919D01*
X170518465Y-103988689D01*
X170491249Y-104130222D01*
X170491551Y-104184135D01*
X170543022Y-104246977D01*
X170661627Y-104361132D01*
X170830573Y-104511262D01*
X171033068Y-104682026D01*
X171067729Y-104710459D01*
X172005092Y-105542783D01*
X172854710Y-106436008D01*
X173615930Y-107389318D01*
X174288096Y-108401895D01*
X174856638Y-109444514D01*
X175207849Y-110213341D01*
X175498407Y-110973813D01*
X175736872Y-111753950D01*
X175931803Y-112581775D01*
X176091761Y-113485310D01*
X176092522Y-113490295D01*
X176139196Y-113873832D01*
X176175754Y-114331639D01*
X176201826Y-114838963D01*
X176217044Y-115371048D01*
X176221038Y-115903143D01*
X176213441Y-116410493D01*
X176193883Y-116868346D01*
X176161995Y-117251946D01*
X176150014Y-117348522D01*
X175958835Y-118514113D01*
X175710477Y-119611416D01*
X175397644Y-120666997D01*
X175013045Y-121707422D01*
X174840765Y-122117721D01*
X174610119Y-122633979D01*
X174370954Y-123135872D01*
X174117940Y-123631645D01*
X173845751Y-124129543D01*
X173549057Y-124637811D01*
X173222531Y-125164695D01*
X172860844Y-125718440D01*
X172458667Y-126307292D01*
X172010674Y-126939494D01*
X171511535Y-127623293D01*
X170955921Y-128366934D01*
X170338506Y-129178662D01*
X169958084Y-129673417D01*
X169265448Y-130574755D01*
X168636829Y-131400692D01*
X168067538Y-132158083D01*
X167552890Y-132853785D01*
X167088198Y-133494653D01*
X166668776Y-134087542D01*
X166289938Y-134639308D01*
X165946997Y-135156807D01*
X165635267Y-135646894D01*
X165350062Y-136116424D01*
X165086695Y-136572253D01*
X164840480Y-137021238D01*
X164606730Y-137470232D01*
X164546004Y-137590642D01*
X164170436Y-138389184D01*
X163872718Y-139135586D01*
X163648417Y-139846380D01*
X163493104Y-140538097D01*
X163402345Y-141227270D01*
X163371710Y-141930431D01*
X163371684Y-141971518D01*
X160635949Y-141971518D01*
X160635595Y-141905694D01*
X160648730Y-141344618D01*
X160678108Y-140801309D01*
X160723828Y-140296398D01*
X160785994Y-139850517D01*
X160788282Y-139837306D01*
X160889496Y-139391608D01*
X161049009Y-138870207D01*
X161262080Y-138284076D01*
X161523966Y-137644185D01*
X161829927Y-136961504D01*
X162175220Y-136247004D01*
X162555106Y-135511655D01*
X162964842Y-134766429D01*
X163027159Y-134656961D01*
X163210505Y-134340975D01*
X163396042Y-134031691D01*
X163589249Y-133721382D01*
X163795608Y-133402322D01*
X164020597Y-133066784D01*
X164269697Y-132707042D01*
X164548388Y-132315369D01*
X164862149Y-131884040D01*
X165216462Y-131405327D01*
X165616804Y-130871505D01*
X166068658Y-130274845D01*
X166577503Y-129607624D01*
X166994893Y-129062692D01*
X167669570Y-128179927D01*
X168280637Y-127373017D01*
X168832602Y-126635077D01*
X169329975Y-125959224D01*
X169777265Y-125338572D01*
X170178980Y-124766238D01*
X170539630Y-124235338D01*
X170863725Y-123738987D01*
X171155772Y-123270300D01*
X171420282Y-122822394D01*
X171661763Y-122388385D01*
X171884724Y-121961387D01*
X172093675Y-121534517D01*
X172293125Y-121100891D01*
X172459569Y-120719478D01*
X172855586Y-119668374D01*
X173156504Y-118599597D01*
X173363244Y-117520485D01*
X173476731Y-116438375D01*
X173497886Y-115360606D01*
X173427632Y-114294515D01*
X173266892Y-113247441D01*
X173016588Y-112226721D01*
X172677645Y-111239694D01*
X172250983Y-110293698D01*
X171737525Y-109396070D01*
X171138196Y-108554148D01*
X170892253Y-108255171D01*
X170652303Y-107990667D01*
X170382202Y-107719705D01*
X170095708Y-107453531D01*
X169806580Y-107203388D01*
X169528577Y-106980524D01*
X169275459Y-106796181D01*
X169060985Y-106661607D01*
X168898913Y-106588044D01*
X168839653Y-106577636D01*
X168741327Y-106612396D01*
X168604897Y-106701697D01*
X168510844Y-106780368D01*
X168327407Y-106934638D01*
X168055154Y-107142019D01*
X167697094Y-107400360D01*
X167256237Y-107707508D01*
X166735592Y-108061311D01*
X166481961Y-108231241D01*
X165745147Y-108722991D01*
X165745663Y-108976579D01*
X165752191Y-109126496D01*
X165769648Y-109353305D01*
X165795464Y-109627581D01*
X165827070Y-109919897D01*
X165830989Y-109953586D01*
X165916243Y-111041490D01*
X165918997Y-112127291D01*
X165841146Y-113197480D01*
X165684587Y-114238551D01*
X165451215Y-115236997D01*
X165142926Y-116179310D01*
X164864449Y-116839451D01*
X164626203Y-117320532D01*
X164363746Y-117792705D01*
X164071344Y-118262695D01*
X163743265Y-118737230D01*
X163373775Y-119223036D01*
X162957141Y-119726839D01*
X162487629Y-120255367D01*
X161959507Y-120815347D01*
X161367041Y-121413504D01*
X160704498Y-122056566D01*
X159966144Y-122751259D01*
X159314767Y-123350770D01*
X158585421Y-124019826D01*
X157931151Y-124627715D01*
X157344864Y-125182075D01*
X156819464Y-125690543D01*
X156347858Y-126160758D01*
X155922951Y-126600356D01*
X155537649Y-127016974D01*
X155184857Y-127418252D01*
X154857482Y-127811825D01*
X154548428Y-128205331D01*
X154250602Y-128606409D01*
X153956909Y-129022696D01*
X153715567Y-129378691D01*
X152996399Y-130535226D01*
X152339022Y-131752983D01*
X151749464Y-133016367D01*
X151233754Y-134309785D01*
X150797919Y-135617643D01*
X150447987Y-136924348D01*
X150189986Y-138214305D01*
X150119342Y-138681970D01*
X150073957Y-139111116D01*
X150043216Y-139611965D01*
X150027131Y-140155632D01*
X150025715Y-140713233D01*
X147289433Y-140713233D01*
X147289086Y-140605063D01*
X147294096Y-139869630D01*
X147312236Y-139219544D01*
X147345798Y-138633526D01*
X147397071Y-138090299D01*
X147468344Y-137568586D01*
X147561909Y-137047110D01*
X147680055Y-136504592D01*
X147770335Y-136133699D01*
X148060341Y-135097072D01*
X148418156Y-134010941D01*
X148833659Y-132899378D01*
X149296733Y-131786454D01*
X149797259Y-130696242D01*
X150325117Y-129652814D01*
X150870190Y-128680242D01*
X150981492Y-128494514D01*
X151179301Y-128173282D01*
X151376793Y-127864076D01*
X151578311Y-127562157D01*
X151788196Y-127262789D01*
X152010790Y-126961232D01*
X152250436Y-126652749D01*
X152511476Y-126332602D01*
X152798250Y-125996053D01*
X153115102Y-125638363D01*
X153466374Y-125254795D01*
X153856407Y-124840611D01*
X154289543Y-124391073D01*
X154770124Y-123901442D01*
X155302493Y-123366981D01*
X155890990Y-122782951D01*
X156539959Y-122144616D01*
X157253742Y-121447236D01*
X158036679Y-120686073D01*
X158893114Y-119856390D01*
X158932521Y-119818267D01*
X159507643Y-119256962D01*
X160008698Y-118756309D01*
X160443175Y-118307431D01*
X160818563Y-117901449D01*
X161142350Y-117529482D01*
X161422025Y-117182653D01*
X161665076Y-116852083D01*
X161878993Y-116528892D01*
X162071264Y-116204201D01*
X162228239Y-115910700D01*
X162466361Y-115403006D01*
X162670764Y-114883147D01*
X162831679Y-114379592D01*
X162939338Y-113920812D01*
X162963956Y-113766350D01*
X162980614Y-113574254D01*
X162992960Y-113281269D01*
X163000910Y-112893597D01*
X163004378Y-112417439D01*
X163003277Y-111858996D01*
X162998212Y-111282650D01*
X162991372Y-110724238D01*
X162983765Y-110258734D01*
X162973576Y-109871881D01*
X162958989Y-109549419D01*
X162938190Y-109277090D01*
X162909363Y-109040633D01*
X162870692Y-108825792D01*
X162820364Y-108618305D01*
X162756561Y-108403916D01*
X162677470Y-108168364D01*
X162581274Y-107897391D01*
X162559545Y-107836919D01*
X162146908Y-106843172D01*
X161646384Y-105909377D01*
X161061177Y-105039151D01*
X160394493Y-104236109D01*
X159649536Y-103503868D01*
X158829510Y-102846043D01*
X157937621Y-102266251D01*
X157332067Y-101938552D01*
X156928200Y-101747314D01*
X156473473Y-101551301D01*
X155990650Y-101358802D01*
X155502495Y-101178105D01*
X155031772Y-101017497D01*
X154601246Y-100885268D01*
X154233680Y-100789704D01*
X154100133Y-100761851D01*
X153970331Y-100744427D01*
X153914357Y-100765624D01*
X153902531Y-100833847D01*
X153931113Y-100913818D01*
X154010113Y-101064663D01*
X154129410Y-101268819D01*
X154278884Y-101508721D01*
X154387883Y-101676190D01*
X154932610Y-102537170D01*
X155395843Y-103356744D01*
X155784549Y-104154015D01*
X156105691Y-104948088D01*
X156366235Y-105758065D01*
X156573146Y-106603048D01*
X156733389Y-107502141D01*
X156849003Y-108426371D01*
X156936377Y-109622348D01*
X156945941Y-110763360D01*
X156878006Y-111844370D01*
X156732886Y-112860344D01*
X156516942Y-113785020D01*
X156160953Y-114845207D01*
X155707076Y-115870718D01*
X155160240Y-116857120D01*
X154525374Y-117799977D01*
X153807410Y-118694856D01*
X153011276Y-119537322D01*
X152141901Y-120322941D01*
X151204217Y-121047277D01*
X150203151Y-121705898D01*
X149143635Y-122294368D01*
X148030597Y-122808253D01*
X146868967Y-123243118D01*
X145663675Y-123594530D01*
X145592014Y-123612386D01*
X145302720Y-123681186D01*
X145035733Y-123737581D01*
X144776017Y-123782769D01*
X144508535Y-123817948D01*
X144218249Y-123844316D01*
X143890122Y-123863071D01*
X143509118Y-123875412D01*
X143060198Y-123882536D01*
X142528326Y-123885642D01*
X142157128Y-123886075D01*
X140295623Y-123886075D01*
X140588927Y-124488923D01*
X140893155Y-125234401D01*
X141104360Y-126022063D01*
X141220943Y-126838173D01*
X141241307Y-127668990D01*
X141163853Y-128500778D01*
X141098003Y-128865309D01*
X140909553Y-129514854D01*
X140627577Y-130119499D01*
X140258207Y-130673769D01*
X139807576Y-131172185D01*
X139281818Y-131609271D01*
X138687064Y-131979552D01*
X138029447Y-132277550D01*
X137315100Y-132497788D01*
X136942404Y-132576347D01*
X136691633Y-132621654D01*
X136470101Y-132662001D01*
X136305090Y-132692403D01*
X136232383Y-132706157D01*
X136111814Y-132729889D01*
X136111814Y-134033956D01*
X136103402Y-134877800D01*
X136076391Y-135625804D01*
X136028122Y-136288109D01*
X135955931Y-136874855D01*
X135857158Y-137396183D01*
X135729142Y-137862235D01*
X135569220Y-138283150D01*
X135374732Y-138669071D01*
X135143017Y-139030138D01*
X134871412Y-139376493D01*
X134643475Y-139628974D01*
X134123434Y-140100102D01*
X133542823Y-140483415D01*
X132905269Y-140776920D01*
X132214398Y-140978622D01*
X132174157Y-140987173D01*
X131777994Y-141048438D01*
X131331993Y-141082367D01*
X130872627Y-141088676D01*
X130436373Y-141067084D01*
X130059705Y-141017308D01*
X129995152Y-141004039D01*
X129596782Y-140885648D01*
X129179759Y-140709718D01*
X128785676Y-140496276D01*
X128456127Y-140265350D01*
X128449324Y-140259733D01*
X128291066Y-140138289D01*
X128154578Y-140050870D01*
X128068418Y-140015675D01*
X128066299Y-140015611D01*
X127980637Y-140042279D01*
X127833352Y-140112964D01*
X127652948Y-140213683D01*
X127610434Y-140239221D01*
X127253513Y-140443043D01*
X126883386Y-140630566D01*
X126525345Y-140790489D01*
X126204681Y-140911511D01*
X125947957Y-140982084D01*
X125723546Y-141009301D01*
X125393648Y-141024504D01*
X124957908Y-141027703D01*
X124501122Y-141020926D01*
X124105705Y-141010617D01*
X123798859Y-140998589D01*
X123561980Y-140983077D01*
X123376466Y-140962316D01*
X123223714Y-140934540D01*
X123085121Y-140897985D01*
X123032843Y-140881602D01*
X122573342Y-140680826D01*
X122125707Y-140386652D01*
X121703216Y-140012842D01*
X121319147Y-139573163D01*
X120986778Y-139081378D01*
X120719388Y-138551251D01*
X120671898Y-138434189D01*
X120544543Y-138082313D01*
X120437337Y-137728701D01*
X120348533Y-137360108D01*
X120276385Y-136963288D01*
X120219146Y-136524995D01*
X120175070Y-136031983D01*
X120142411Y-135471005D01*
X120119423Y-134828817D01*
X120104996Y-134134493D01*
X120075978Y-132245569D01*
X119755703Y-132245569D01*
X119408654Y-132208024D01*
X118988864Y-132095856D01*
X118960115Y-132086324D01*
X118529542Y-131919394D01*
X122762927Y-131919394D01*
X122791259Y-132229844D01*
X122800740Y-132373609D01*
X122811614Y-132604456D01*
X122823134Y-132902318D01*
X122834555Y-133247126D01*
X122845129Y-133618811D01*
X122849653Y-133799577D01*
X122872187Y-134550849D01*
X122902023Y-135203180D01*
X122940054Y-135764615D01*
X122987170Y-136243193D01*
X123044265Y-136646958D01*
X123112230Y-136983951D01*
X123191958Y-137262213D01*
X123250867Y-137416230D01*
X123383600Y-137650726D01*
X123570059Y-137885272D01*
X123779804Y-138086398D01*
X123982399Y-138220633D01*
X123982415Y-138220641D01*
X124329236Y-138330446D01*
X124721540Y-138361124D01*
X125133791Y-138313813D01*
X125540451Y-138189650D01*
X125637790Y-138146950D01*
X125953713Y-137970765D01*
X126211645Y-137769914D01*
X126392483Y-137560673D01*
X126448897Y-137455909D01*
X126492331Y-137290976D01*
X126529423Y-137019579D01*
X126560152Y-136642241D01*
X126584499Y-136159485D01*
X126602445Y-135571833D01*
X126613970Y-134879809D01*
X126619055Y-134083934D01*
X126618525Y-133736781D01*
X129534388Y-133736781D01*
X129537070Y-134274920D01*
X129544938Y-134809604D01*
X129557617Y-135327082D01*
X129574732Y-135813598D01*
X129595909Y-136255400D01*
X129620772Y-136638735D01*
X129648946Y-136949848D01*
X129680057Y-137174987D01*
X129697928Y-137255906D01*
X129816689Y-137608201D01*
X129961682Y-137876159D01*
X130146821Y-138068939D01*
X130386024Y-138195699D01*
X130693206Y-138265598D01*
X131082283Y-138287794D01*
X131262236Y-138285415D01*
X131536636Y-138274870D01*
X131733875Y-138257444D01*
X131883959Y-138227529D01*
X132016891Y-138179519D01*
X132134857Y-138122346D01*
X132511022Y-137868566D01*
X132822872Y-137535802D01*
X133059518Y-137137975D01*
X133189643Y-136773628D01*
X133216567Y-136621485D01*
X133243689Y-136378972D01*
X133270212Y-136062886D01*
X133295340Y-135690027D01*
X133318273Y-135277191D01*
X133338215Y-134841176D01*
X133354368Y-134398782D01*
X133365935Y-133966805D01*
X133372118Y-133562045D01*
X133372120Y-133201298D01*
X133368592Y-133004296D01*
X133352109Y-132396568D01*
X132772091Y-132137656D01*
X132549532Y-132033058D01*
X132257162Y-131887872D01*
X131918496Y-131714207D01*
X131557045Y-131524171D01*
X131196323Y-131329875D01*
X131084116Y-131268353D01*
X130688028Y-131050272D01*
X130375569Y-130879356D01*
X130136433Y-130751175D01*
X129960315Y-130661299D01*
X129836906Y-130605296D01*
X129755902Y-130578737D01*
X129706995Y-130577192D01*
X129679880Y-130596229D01*
X129664251Y-130631419D01*
X129657148Y-130654942D01*
X129645764Y-130737986D01*
X129631341Y-130912940D01*
X129614801Y-131164613D01*
X129597062Y-131477814D01*
X129579044Y-131837352D01*
X129561668Y-132228038D01*
X129561204Y-132239173D01*
X129546080Y-132705154D01*
X129537266Y-133208941D01*
X129534388Y-133736781D01*
X126618525Y-133736781D01*
X126617681Y-133184732D01*
X126616428Y-132960019D01*
X126612586Y-132444262D01*
X126607830Y-131961631D01*
X126602345Y-131522625D01*
X126596318Y-131137741D01*
X126589934Y-130817477D01*
X126583380Y-130572330D01*
X126576841Y-130412799D01*
X126570504Y-130349381D01*
X126570174Y-130348899D01*
X126492107Y-130340509D01*
X126327504Y-130376086D01*
X126085813Y-130451914D01*
X125776480Y-130564278D01*
X125408951Y-130709462D01*
X124992673Y-130883750D01*
X124537091Y-131083427D01*
X124051652Y-131304777D01*
X123609839Y-131513311D01*
X122762927Y-131919394D01*
X118529542Y-131919394D01*
X118319602Y-131838002D01*
X117772231Y-131549585D01*
X117308611Y-131212167D01*
X116919348Y-130816840D01*
X116595052Y-130354699D01*
X116326330Y-129816838D01*
X116189595Y-129459071D01*
X116061083Y-129054838D01*
X115972570Y-128685932D01*
X115918453Y-128315768D01*
X115893130Y-127907759D01*
X115890215Y-127522891D01*
X118694491Y-127522891D01*
X118710623Y-127971466D01*
X118787945Y-128387763D01*
X118925883Y-128752205D01*
X119102187Y-129020629D01*
X119227653Y-129160791D01*
X119342670Y-129264959D01*
X119465816Y-129338414D01*
X119615669Y-129386434D01*
X119810809Y-129414297D01*
X120069815Y-129427284D01*
X120411264Y-129430674D01*
X120544936Y-129430587D01*
X120834524Y-129429589D01*
X121074772Y-129424843D01*
X121281936Y-129411934D01*
X121472274Y-129386451D01*
X121662042Y-129343982D01*
X121867496Y-129280113D01*
X122104894Y-129190432D01*
X122390492Y-129070527D01*
X122740547Y-128915985D01*
X123171316Y-128722393D01*
X123197468Y-128710617D01*
X123888530Y-128406166D01*
X124500820Y-128152174D01*
X125047989Y-127944846D01*
X125543691Y-127780385D01*
X126001578Y-127654998D01*
X126435303Y-127564887D01*
X126858518Y-127506259D01*
X127284876Y-127475317D01*
X127667462Y-127467962D01*
X128566553Y-127513141D01*
X129438411Y-127642788D01*
X130265919Y-127853571D01*
X130951638Y-128106885D01*
X131165937Y-128204923D01*
X131445601Y-128341099D01*
X131762446Y-128501254D01*
X132088290Y-128671229D01*
X132286507Y-128777525D01*
X132696394Y-128997867D01*
X133031959Y-129172493D01*
X133311398Y-129309785D01*
X133552910Y-129418123D01*
X133774689Y-129505886D01*
X133994934Y-129581456D01*
X134109459Y-129617073D01*
X134661178Y-129744531D01*
X135261872Y-129814825D01*
X135869398Y-129825520D01*
X136441616Y-129774179D01*
X136540506Y-129757639D01*
X137068310Y-129624640D01*
X137513296Y-129432867D01*
X137872614Y-129184356D01*
X138143416Y-128881141D01*
X138322854Y-128525259D01*
X138340482Y-128471480D01*
X138428315Y-128052697D01*
X138459220Y-127576431D01*
X138434503Y-127075167D01*
X138355475Y-126581389D01*
X138248943Y-126198688D01*
X138066457Y-125787296D01*
X137801173Y-125355497D01*
X137469335Y-124923833D01*
X137087186Y-124512847D01*
X136670969Y-124143082D01*
X136548650Y-124048319D01*
X136044602Y-123710330D01*
X135463598Y-123388592D01*
X134835841Y-123097428D01*
X134191529Y-122851163D01*
X133715122Y-122704415D01*
X133274338Y-122583900D01*
X132720784Y-123114418D01*
X132244383Y-123531934D01*
X131752058Y-123880659D01*
X131223159Y-124171479D01*
X130637038Y-124415282D01*
X129973045Y-124622956D01*
X129748331Y-124681660D01*
X128827543Y-124863361D01*
X127901495Y-124945394D01*
X127169539Y-124942230D01*
X126299715Y-124868637D01*
X125506820Y-124723852D01*
X124786189Y-124506171D01*
X124133159Y-124213890D01*
X123543065Y-123845302D01*
X123051993Y-123437571D01*
X122681548Y-123088112D01*
X121988348Y-123465316D01*
X121555043Y-123708163D01*
X121194060Y-123928925D01*
X120878808Y-124146778D01*
X120582697Y-124380900D01*
X120279137Y-124650468D01*
X120071266Y-124847936D01*
X119763258Y-125154600D01*
X119522583Y-125416364D01*
X119332349Y-125654601D01*
X119175662Y-125890682D01*
X119035630Y-126145980D01*
X119018969Y-126179273D01*
X118848091Y-126607218D01*
X118740122Y-127061616D01*
X118694491Y-127522891D01*
X115890215Y-127522891D01*
X115890066Y-127503164D01*
X115896255Y-127171018D01*
X115910724Y-126908676D01*
X115938180Y-126678826D01*
X115983331Y-126444159D01*
X116050884Y-126167364D01*
X116065857Y-126109915D01*
X116250937Y-125517294D01*
X116492443Y-124950118D01*
X116802357Y-124384265D01*
X117192659Y-123795615D01*
X117265108Y-123695318D01*
X117770864Y-123002550D01*
X117228786Y-122801573D01*
X116701750Y-122588301D01*
X116114476Y-122319509D01*
X115489726Y-122007473D01*
X114850266Y-121664472D01*
X114218860Y-121302781D01*
X113618271Y-120934678D01*
X113071265Y-120572440D01*
X112989240Y-120515144D01*
X112616933Y-120257236D01*
X112322054Y-120062948D01*
X112098523Y-119928728D01*
X111940261Y-119851023D01*
X111841186Y-119826279D01*
X111817186Y-119830251D01*
X111765934Y-119880599D01*
X111716652Y-119997127D01*
X111667145Y-120189044D01*
X111615217Y-120465560D01*
X111558672Y-120835882D01*
X111532947Y-121022129D01*
X111496184Y-121374454D01*
X111467833Y-121809478D01*
X111447893Y-122305551D01*
X111436362Y-122841026D01*
X111433237Y-123394253D01*
X108684374Y-123394253D01*
X108683084Y-123257214D01*
X108695433Y-122474163D01*
X108730419Y-121729729D01*
X108790396Y-121002376D01*
X108877715Y-120270564D01*
X108994729Y-119512757D01*
X109143789Y-118707416D01*
X109327248Y-117833004D01*
X109421464Y-117412083D01*
X109522824Y-116966573D01*
X109180520Y-116272580D01*
X108839176Y-115559740D01*
X108552936Y-114912808D01*
X108314475Y-114310581D01*
X108116464Y-113731855D01*
X107951576Y-113155430D01*
X107812483Y-112560101D01*
X107705997Y-112006002D01*
X107632577Y-111474589D01*
X107583693Y-110875479D01*
X107560267Y-110245514D01*
X107562794Y-109712447D01*
X110301169Y-109712447D01*
X110310470Y-110718523D01*
X110422915Y-111703261D01*
X110635880Y-112662625D01*
X110946743Y-113592577D01*
X111352879Y-114489080D01*
X111851666Y-115348096D01*
X112440481Y-116165590D01*
X113116699Y-116937523D01*
X113877698Y-117659859D01*
X114720854Y-118328561D01*
X115643543Y-118939591D01*
X116643143Y-119488913D01*
X116659306Y-119496959D01*
X117224821Y-119766708D01*
X117779880Y-120006417D01*
X118353315Y-120227154D01*
X118973956Y-120439989D01*
X119670636Y-120655990D01*
X119703961Y-120665880D01*
X120759282Y-120978552D01*
X121228801Y-120738585D01*
X121444309Y-120620279D01*
X121632642Y-120502134D01*
X121766142Y-120402173D01*
X121804878Y-120363150D01*
X121888809Y-120220795D01*
X121959886Y-120042444D01*
X121970089Y-120007195D01*
X122080850Y-119613523D01*
X122184509Y-119300479D01*
X122291161Y-119042907D01*
X122410900Y-118815650D01*
X122513587Y-118652623D01*
X122897253Y-118170120D01*
X123367583Y-117741180D01*
X123925872Y-117365196D01*
X124573413Y-117041559D01*
X125311502Y-116769663D01*
X126141433Y-116548898D01*
X127064502Y-116378658D01*
X127477249Y-116322450D01*
X128434690Y-116204456D01*
X128129593Y-115557396D01*
X128005386Y-115290227D01*
X127889003Y-115033182D01*
X127793038Y-114814502D01*
X127730086Y-114662432D01*
X127727542Y-114655801D01*
X127664888Y-114510841D01*
X127610753Y-114418656D01*
X127589092Y-114401265D01*
X127490000Y-114410000D01*
X127370000Y-114420000D01*
X127220000Y-114440000D01*
X127440000Y-114170000D01*
X127530000Y-114060000D01*
X127560000Y-114030000D01*
X127730000Y-113800000D01*
X127860000Y-113610000D01*
X127910000Y-113520000D01*
X127990000Y-113390000D01*
X128080000Y-113230000D01*
X128160000Y-113060000D01*
X128250000Y-112870000D01*
X128420000Y-112430000D01*
X128650000Y-111550000D01*
X128650000Y-111410000D01*
X128670000Y-111260000D01*
X128700000Y-111060000D01*
X128710000Y-110890000D01*
X128700000Y-110750000D01*
X128710000Y-110560000D01*
X128710000Y-110440000D01*
X128700000Y-110370000D01*
X128698947Y-110350000D01*
X128700000Y-110350000D01*
X128710000Y-110250000D01*
X128704957Y-110226050D01*
X128700000Y-110350000D01*
X128698947Y-110350000D01*
X128690000Y-110180000D01*
X128692127Y-110165106D01*
X128681441Y-110114345D01*
X129765614Y-110114345D01*
X129766064Y-110662242D01*
X129769633Y-111118373D01*
X129778501Y-111498141D01*
X129794847Y-111816949D01*
X129820850Y-112090198D01*
X129858688Y-112333293D01*
X129910541Y-112561636D01*
X129978587Y-112790630D01*
X130065005Y-113035677D01*
X130171975Y-113312181D01*
X130243191Y-113490295D01*
X130688601Y-114456535D01*
X131224931Y-115369892D01*
X131848487Y-116227827D01*
X132555576Y-117027800D01*
X133342505Y-117767272D01*
X134205581Y-118443703D01*
X135141111Y-119054553D01*
X136145400Y-119597284D01*
X137214757Y-120069355D01*
X138345487Y-120468228D01*
X139533898Y-120791362D01*
X140776297Y-121036218D01*
X141336497Y-121118161D01*
X142153354Y-121189582D01*
X142958587Y-121190902D01*
X143720286Y-121122332D01*
X143856408Y-121101591D01*
X144148731Y-121051818D01*
X144441242Y-120998470D01*
X144696076Y-120948635D01*
X144847758Y-120915972D01*
X145920780Y-120619719D01*
X146958105Y-120239507D01*
X147952657Y-119780702D01*
X148897360Y-119248670D01*
X149785137Y-118648778D01*
X150608912Y-117986392D01*
X151361609Y-117266878D01*
X152036153Y-116495602D01*
X152625466Y-115677932D01*
X153122474Y-114819232D01*
X153261534Y-114535231D01*
X153587716Y-113763062D01*
X153837387Y-112994804D01*
X154015203Y-112208413D01*
X154125821Y-111381841D01*
X154173897Y-110493042D01*
X154176829Y-110201516D01*
X154133958Y-109117516D01*
X154005931Y-108055450D01*
X153795829Y-107024878D01*
X153506731Y-106035358D01*
X153141716Y-105096448D01*
X152703864Y-104217706D01*
X152196256Y-103408692D01*
X151833635Y-102928775D01*
X151188229Y-102219353D01*
X150461262Y-101575649D01*
X149657177Y-100999433D01*
X148780416Y-100492475D01*
X147835423Y-100056545D01*
X146826639Y-99693412D01*
X145758508Y-99404848D01*
X144635472Y-99192620D01*
X143461975Y-99058500D01*
X142242458Y-99004257D01*
X141979535Y-99003184D01*
X140717958Y-99053807D01*
X139507694Y-99198304D01*
X138348895Y-99436624D01*
X137241710Y-99768715D01*
X136186290Y-100194527D01*
X135182783Y-100714007D01*
X134231341Y-101327105D01*
X133477796Y-101909962D01*
X132699444Y-102630661D01*
X131997791Y-103425911D01*
X131372680Y-104295939D01*
X130823957Y-105240971D01*
X130351466Y-106261235D01*
X130169817Y-106728232D01*
X130069664Y-107007670D01*
X129987506Y-107259404D01*
X129921572Y-107498261D01*
X129870094Y-107739069D01*
X129831300Y-107996655D01*
X129803422Y-108285845D01*
X129784689Y-108621467D01*
X129773331Y-109018349D01*
X129767578Y-109491316D01*
X129765661Y-110055196D01*
X129765614Y-110114345D01*
X128681441Y-110114345D01*
X128678421Y-110100000D01*
X128700000Y-110100000D01*
X128701429Y-110100000D01*
X128710000Y-110040000D01*
X128700000Y-110100000D01*
X128678421Y-110100000D01*
X128670000Y-110060000D01*
X128660000Y-109900000D01*
X128650857Y-109790285D01*
X128620000Y-109600000D01*
X128570000Y-109430000D01*
X128540000Y-109320000D01*
X128510000Y-109210000D01*
X128450000Y-108990000D01*
X128430000Y-108930000D01*
X128400000Y-108860000D01*
X128380000Y-108790000D01*
X128300000Y-108590000D01*
X128280687Y-108544937D01*
X128280000Y-108550000D01*
X128263908Y-108511782D01*
X128285190Y-108511782D01*
X128288718Y-108509873D01*
X128287938Y-108491546D01*
X128285190Y-108511782D01*
X128263908Y-108511782D01*
X128200000Y-108360000D01*
X128150000Y-108250000D01*
X128070000Y-108100000D01*
X128010000Y-107990000D01*
X127910000Y-107820000D01*
X127790000Y-107630000D01*
X127660000Y-107440000D01*
X127570000Y-107320000D01*
X127500000Y-107230000D01*
X127400000Y-107110000D01*
X127220000Y-106910000D01*
X127401876Y-106339693D01*
X127699694Y-105492954D01*
X128062890Y-104640595D01*
X128479438Y-103805012D01*
X128937311Y-103008599D01*
X129424483Y-102273752D01*
X129928929Y-101622864D01*
X129945012Y-101603919D01*
X130099065Y-101418447D01*
X130223044Y-101260533D01*
X130302554Y-101149077D01*
X130324472Y-101105808D01*
X130274823Y-101004938D01*
X130133574Y-100879916D01*
X129912272Y-100735688D01*
X129622466Y-100577197D01*
X129275702Y-100409389D01*
X128883529Y-100237208D01*
X128457494Y-100065600D01*
X128009144Y-99899510D01*
X127550028Y-99743882D01*
X127091692Y-99603661D01*
X126645684Y-99483793D01*
X126404327Y-99427116D01*
X125099665Y-99186101D01*
X123816949Y-99044036D01*
X122559503Y-99000515D01*
X121330653Y-99055131D01*
X120133724Y-99207479D01*
X118972041Y-99457153D01*
X117848929Y-99803745D01*
X116767715Y-100246850D01*
X115853919Y-100716083D01*
X115016042Y-101242318D01*
X114217920Y-101847443D01*
X113474286Y-102517617D01*
X112799878Y-103239004D01*
X112209432Y-103997763D01*
X111957681Y-104375116D01*
X111427335Y-105313548D01*
X110997805Y-106288187D01*
X110669414Y-107297987D01*
X110442486Y-108341905D01*
X110317346Y-109418895D01*
X110301169Y-109712447D01*
X107562794Y-109712447D01*
X107563225Y-109621538D01*
X107593491Y-109040393D01*
X107624013Y-108736722D01*
X107657462Y-108441639D01*
X107684948Y-108155708D01*
X107703702Y-107910845D01*
X107710958Y-107738968D01*
X107710970Y-107733972D01*
X107710970Y-107439014D01*
X107402847Y-107228242D01*
X106786802Y-106750160D01*
X106190018Y-106174057D01*
X105620253Y-105508462D01*
X105085265Y-104761907D01*
X104910189Y-104487140D01*
X104583997Y-103907069D01*
X104312992Y-103306417D01*
X104094728Y-102673586D01*
X103926764Y-101996981D01*
X103806653Y-101265004D01*
X103731951Y-100466060D01*
X103700216Y-99588551D01*
X103702019Y-99295119D01*
X106425332Y-99295119D01*
X106458707Y-100125742D01*
X106567105Y-100946608D01*
X106725850Y-101647679D01*
X106836312Y-101992805D01*
X106984922Y-102378371D01*
X107156639Y-102770550D01*
X107336416Y-103135520D01*
X107509211Y-103439456D01*
X107552543Y-103506407D01*
X107640221Y-103622228D01*
X107773092Y-103780089D01*
X107935054Y-103962799D01*
X108110006Y-104153169D01*
X108281845Y-104334012D01*
X108434471Y-104488137D01*
X108551783Y-104598357D01*
X108617677Y-104647481D01*
X108622403Y-104648522D01*
X108657752Y-104603840D01*
X108726776Y-104484523D01*
X108817008Y-104312671D01*
X108856710Y-104233227D01*
X109173086Y-103639518D01*
X109562692Y-102991517D01*
X109988998Y-102344303D01*
X110200398Y-102033795D01*
X110356250Y-101793572D01*
X110461571Y-101605504D01*
X110521380Y-101451457D01*
X110540693Y-101313298D01*
X110524529Y-101172896D01*
X110477904Y-101012118D01*
X110409813Y-100823571D01*
X110296172Y-100402263D01*
X110238498Y-99925513D01*
X110238251Y-99430155D01*
X110292057Y-98992343D01*
X132310299Y-98992343D01*
X132328342Y-99058177D01*
X132386651Y-99075392D01*
X132396948Y-99075527D01*
X132479119Y-99049702D01*
X132633599Y-98978782D01*
X132840668Y-98872596D01*
X133080605Y-98740976D01*
X133167611Y-98691346D01*
X134362901Y-98047706D01*
X135527748Y-97511116D01*
X152014046Y-97511116D01*
X152032060Y-97564513D01*
X152085298Y-97605343D01*
X152188172Y-97638298D01*
X152355091Y-97668069D01*
X152600469Y-97699348D01*
X152921492Y-97734963D01*
X153169204Y-97767305D01*
X153487871Y-97817010D01*
X153843785Y-97878398D01*
X154203236Y-97945785D01*
X154368328Y-97978839D01*
X154670285Y-98039812D01*
X154939457Y-98092361D01*
X155156685Y-98132888D01*
X155302807Y-98157794D01*
X155354625Y-98164063D01*
X155428888Y-98118031D01*
X155512529Y-97997867D01*
X155542177Y-97938067D01*
X155840400Y-97394794D01*
X156216352Y-96905029D01*
X156657719Y-96477088D01*
X157152184Y-96119283D01*
X157687431Y-95839930D01*
X158251146Y-95647343D01*
X158831012Y-95549836D01*
X159095596Y-95539193D01*
X159675244Y-95588191D01*
X160277177Y-95728201D01*
X160885411Y-95950127D01*
X161483964Y-96244875D01*
X162056854Y-96603348D01*
X162588098Y-97016450D01*
X163061713Y-97475086D01*
X163461716Y-97970159D01*
X163521822Y-98058157D01*
X163836831Y-98593277D01*
X164057340Y-99116607D01*
X164190431Y-99650511D01*
X164243189Y-100217354D01*
X164244725Y-100340371D01*
X164219864Y-100844122D01*
X164138625Y-101276587D01*
X163991023Y-101663092D01*
X163767074Y-102028963D01*
X163456792Y-102399526D01*
X163415798Y-102442881D01*
X163020674Y-102856452D01*
X163629292Y-103757385D01*
X163845278Y-104085210D01*
X164066408Y-104435013D01*
X164275247Y-104778237D01*
X164454366Y-105086326D01*
X164568784Y-105296459D01*
X164695241Y-105531421D01*
X164809546Y-105727414D01*
X164900743Y-105866806D01*
X164957882Y-105931964D01*
X164965207Y-105934598D01*
X165039058Y-105905648D01*
X165171728Y-105829470D01*
X165335504Y-105722076D01*
X165347761Y-105713563D01*
X165635782Y-105500630D01*
X165966779Y-105236533D01*
X166309604Y-104947511D01*
X166633106Y-104659804D01*
X166898907Y-104406876D01*
X167286396Y-103952247D01*
X167630278Y-103409017D01*
X167925418Y-102788614D01*
X168166680Y-102102467D01*
X168348929Y-101362003D01*
X168403180Y-101059234D01*
X168449170Y-100665399D01*
X168475453Y-100202251D01*
X168482094Y-99705810D01*
X168469160Y-99212098D01*
X168436717Y-98757134D01*
X168398401Y-98455365D01*
X168210875Y-97620684D01*
X167924621Y-96821951D01*
X167543083Y-96062760D01*
X167069706Y-95346705D01*
X166507934Y-94677383D01*
X165861212Y-94058388D01*
X165132986Y-93493315D01*
X164326698Y-92985758D01*
X163813222Y-92725527D01*
X168579264Y-92725527D01*
X168946758Y-93183458D01*
X169352228Y-93721785D01*
X169737568Y-94296774D01*
X170088243Y-94883701D01*
X170389715Y-95457846D01*
X170627447Y-95994485D01*
X170678242Y-96128152D01*
X170788215Y-96420874D01*
X170875486Y-96627284D01*
X170949622Y-96763268D01*
X171020193Y-96844714D01*
X171096765Y-96887510D01*
X171143055Y-96899953D01*
X171241548Y-96917820D01*
X171426446Y-96949262D01*
X171678304Y-96991053D01*
X171977679Y-97039967D01*
X172305127Y-97092778D01*
X172309493Y-97093478D01*
X173245141Y-97257728D01*
X174093964Y-97438147D01*
X174875753Y-97640008D01*
X175610300Y-97868582D01*
X176317397Y-98129141D01*
X176544978Y-98221749D01*
X177709866Y-98764527D01*
X178828975Y-99404110D01*
X179902122Y-100140311D01*
X180929122Y-100972946D01*
X181909792Y-101901827D01*
X182843948Y-102926769D01*
X183731407Y-104047587D01*
X184571983Y-105264094D01*
X185365495Y-106576104D01*
X186025010Y-107810126D01*
X186636098Y-109115868D01*
X187145212Y-110410975D01*
X187555505Y-111705651D01*
X187870128Y-113010102D01*
X188092235Y-114334533D01*
X188127354Y-114615611D01*
X188160363Y-114973249D01*
X188186431Y-115412020D01*
X188205425Y-115909325D01*
X188217210Y-116442563D01*
X188221651Y-116989136D01*
X188218613Y-117526443D01*
X188207961Y-118031885D01*
X188189561Y-118482862D01*
X188163279Y-118856776D01*
X188153220Y-118956117D01*
X187973675Y-120252823D01*
X187728809Y-121480994D01*
X187412444Y-122661467D01*
X187018408Y-123815080D01*
X186540523Y-124962674D01*
X186104702Y-125868776D01*
X185842548Y-126371043D01*
X185578116Y-126847297D01*
X185302313Y-127310999D01*
X185006046Y-127775611D01*
X184680223Y-128254596D01*
X184315752Y-128761413D01*
X183903541Y-129309526D01*
X183434497Y-129912395D01*
X183030105Y-130420863D01*
X182514228Y-131071007D01*
X182064428Y-131652753D01*
X181674031Y-132176396D01*
X181336362Y-132652234D01*
X181044746Y-133090565D01*
X180792509Y-133501684D01*
X180572975Y-133895891D01*
X180379470Y-134283481D01*
X180205320Y-134674752D01*
X180093175Y-134951687D01*
X179938179Y-135372028D01*
X179822810Y-135748494D01*
X179741819Y-136110763D01*
X179689958Y-136488514D01*
X179661980Y-136911426D01*
X179652636Y-137409179D01*
X179652551Y-137443459D01*
X179657155Y-137835080D01*
X179671385Y-138201355D01*
X179693798Y-138528069D01*
X179722955Y-138801006D01*
X179757414Y-139005948D01*
X179795733Y-139128680D01*
X179826359Y-139158227D01*
X179885555Y-139133518D01*
X180005751Y-139070115D01*
X180101620Y-139015908D01*
X180291156Y-138897945D01*
X180554968Y-138721583D01*
X180882839Y-138494356D01*
X181264556Y-138223799D01*
X181689901Y-137917446D01*
X182148660Y-137582831D01*
X182630617Y-137227489D01*
X183125557Y-136858955D01*
X183623264Y-136484763D01*
X184113523Y-136112447D01*
X184586118Y-135749543D01*
X185030834Y-135403584D01*
X185437455Y-135082106D01*
X185464978Y-135060114D01*
X186903088Y-133858385D01*
X188245579Y-132630014D01*
X189489603Y-131377817D01*
X190632306Y-130104609D01*
X191273405Y-129325105D01*
X191533003Y-128985467D01*
X191828920Y-128576777D01*
X192144803Y-128123320D01*
X192464299Y-127649379D01*
X192771055Y-127179238D01*
X193048717Y-126737182D01*
X193280931Y-126347494D01*
X193294231Y-126324261D01*
X194000423Y-124986877D01*
X194618939Y-123601883D01*
X195150675Y-122166020D01*
X195596531Y-120676034D01*
X195957404Y-119128667D01*
X196234194Y-117520663D01*
X196427797Y-115848766D01*
X196513522Y-114653065D01*
X196545083Y-113571784D01*
X196514801Y-112556980D01*
X196418827Y-111587124D01*
X196253310Y-110640688D01*
X196014404Y-109696145D01*
X195698257Y-108731967D01*
X195301022Y-107726627D01*
X195256506Y-107622573D01*
X194797391Y-106639535D01*
X194254177Y-105622422D01*
X193637268Y-104587708D01*
X192957067Y-103551867D01*
X192223980Y-102531372D01*
X191448409Y-101542697D01*
X191313731Y-101379746D01*
X191049496Y-101074999D01*
X190722045Y-100717160D01*
X190347738Y-100322560D01*
X189942936Y-99907532D01*
X189523998Y-99488406D01*
X189107285Y-99081513D01*
X188709155Y-98703184D01*
X188345969Y-98369752D01*
X188034087Y-98097546D01*
X187983544Y-98055389D01*
X186657818Y-97023910D01*
X185296962Y-96092943D01*
X183897825Y-95260710D01*
X182457256Y-94525434D01*
X180972104Y-93885335D01*
X179891982Y-93488736D01*
X178938163Y-93189701D01*
X177943731Y-92928399D01*
X176926664Y-92707460D01*
X175904938Y-92529511D01*
X174896530Y-92397180D01*
X173919417Y-92313093D01*
X172991575Y-92279880D01*
X172130981Y-92300167D01*
X171880801Y-92317719D01*
X171607586Y-92342832D01*
X171264113Y-92378355D01*
X170872746Y-92421597D01*
X170455847Y-92469869D01*
X170035780Y-92520481D01*
X169634907Y-92570744D01*
X169275593Y-92617967D01*
X168980200Y-92659461D01*
X168785899Y-92689957D01*
X168579264Y-92725527D01*
X163813222Y-92725527D01*
X163445795Y-92539314D01*
X162493720Y-92157576D01*
X162300061Y-92090981D01*
X162016523Y-92000096D01*
X161755410Y-91927425D01*
X161499396Y-91870989D01*
X161231153Y-91828811D01*
X160933357Y-91798912D01*
X160588679Y-91779315D01*
X160179793Y-91768041D01*
X159689372Y-91763113D01*
X159421940Y-91762423D01*
X158970350Y-91762492D01*
X158610383Y-91764291D01*
X158326491Y-91768772D01*
X158103125Y-91776886D01*
X157924740Y-91789586D01*
X157775786Y-91807825D01*
X157640716Y-91832553D01*
X157503983Y-91864724D01*
X157427678Y-91884548D01*
X156590821Y-92158449D01*
X155796830Y-92523011D01*
X155054109Y-92971600D01*
X154371065Y-93497576D01*
X153756102Y-94094305D01*
X153217625Y-94755150D01*
X152764039Y-95473474D01*
X152678589Y-95634444D01*
X152545620Y-95912218D01*
X152410384Y-96227517D01*
X152281914Y-96555686D01*
X152169243Y-96872073D01*
X152081404Y-97152024D01*
X152027431Y-97370886D01*
X152016845Y-97440462D01*
X152014046Y-97511116D01*
X135527748Y-97511116D01*
X135538287Y-97506261D01*
X136698870Y-97064991D01*
X137849749Y-96721874D01*
X138544776Y-96560822D01*
X138976923Y-96474648D01*
X139360156Y-96406628D01*
X139717024Y-96354757D01*
X140070073Y-96317030D01*
X140441849Y-96291444D01*
X140854902Y-96275993D01*
X141331776Y-96268674D01*
X141845569Y-96267399D01*
X142781981Y-96282533D01*
X143653015Y-96327657D01*
X144483634Y-96406539D01*
X145298806Y-96522947D01*
X146123495Y-96680645D01*
X146982667Y-96883403D01*
X147901288Y-97134985D01*
X148222362Y-97229552D01*
X148460519Y-97296608D01*
X148688980Y-97353867D01*
X148867127Y-97391330D01*
X148901923Y-97396836D01*
X149125999Y-97427908D01*
X149293062Y-96871865D01*
X149486931Y-96241901D01*
X149664890Y-95700182D01*
X149833993Y-95230270D01*
X150001295Y-94815726D01*
X150173850Y-94440111D01*
X150358713Y-94086987D01*
X150562937Y-93739916D01*
X150784961Y-93395358D01*
X151371317Y-92605253D01*
X152030043Y-91886018D01*
X152766236Y-91233198D01*
X153584994Y-90642338D01*
X154491415Y-90108982D01*
X154625949Y-90038468D01*
X155281139Y-89719860D01*
X155901230Y-89463587D01*
X156508583Y-89264478D01*
X157125561Y-89117363D01*
X157774526Y-89017072D01*
X158477839Y-88958433D01*
X159257863Y-88936278D01*
X159395147Y-88935770D01*
X160067798Y-88944816D01*
X160663290Y-88975050D01*
X161210123Y-89029702D01*
X161736796Y-89111997D01*
X162271806Y-89225161D01*
X162543088Y-89292202D01*
X162900655Y-89387678D01*
X163225500Y-89483315D01*
X163540405Y-89587365D01*
X163868149Y-89708078D01*
X164231513Y-89853707D01*
X164653278Y-90032501D01*
X164977943Y-90174107D01*
X165264439Y-90297988D01*
X165520927Y-90405048D01*
X165729764Y-90488227D01*
X165873308Y-90540467D01*
X165930526Y-90555274D01*
X166008999Y-90543379D01*
X166172635Y-90510432D01*
X166402417Y-90460537D01*
X166679328Y-90397795D01*
X166912076Y-90343461D01*
X167856635Y-90130601D01*
X168727064Y-89957863D01*
X169547365Y-89822284D01*
X170341543Y-89720905D01*
X171133600Y-89650765D01*
X171947540Y-89608903D01*
X172807365Y-89592358D01*
X173006117Y-89591822D01*
X173655423Y-89596607D01*
X174231513Y-89612422D01*
X174767981Y-89641460D01*
X175298420Y-89685916D01*
X175856421Y-89747980D01*
X176317443Y-89807980D01*
X177879903Y-90075288D01*
X179426565Y-90448221D01*
X180956210Y-90926231D01*
X182467622Y-91508767D01*
X183959582Y-92195277D01*
X185430872Y-92985213D01*
X186880274Y-93878023D01*
X188306571Y-94873158D01*
X189403586Y-95721113D01*
X190389780Y-96555678D01*
X191357925Y-97455075D01*
X192322782Y-98433521D01*
X193101054Y-99281435D01*
X193340640Y-99548455D01*
X193556203Y-99785306D01*
X193737764Y-99981301D01*
X193875347Y-100125756D01*
X193958974Y-100207985D01*
X193980055Y-100222811D01*
X193963750Y-100170980D01*
X193906067Y-100037275D01*
X193813498Y-99835714D01*
X193692533Y-99580311D01*
X193549663Y-99285082D01*
X193480283Y-99143637D01*
X192804773Y-97844089D01*
X192098984Y-96630138D01*
X191350802Y-95481756D01*
X190796886Y-94708227D01*
X189788971Y-93440258D01*
X188690594Y-92223503D01*
X187507772Y-91062511D01*
X186246522Y-89961827D01*
X184912860Y-88926000D01*
X183512803Y-87959578D01*
X182052370Y-87067107D01*
X180537576Y-86253136D01*
X178974439Y-85522211D01*
X178230801Y-85211086D01*
X176943048Y-84725058D01*
X175602137Y-84281262D01*
X174227557Y-83884260D01*
X172838800Y-83538613D01*
X171455353Y-83248885D01*
X170096707Y-83019638D01*
X168782350Y-82855433D01*
X167835020Y-82777562D01*
X167514655Y-82761700D01*
X167106465Y-82747920D01*
X166623383Y-82736226D01*
X166078341Y-82726619D01*
X165484271Y-82719101D01*
X164854107Y-82713675D01*
X164200780Y-82710342D01*
X163537224Y-82709105D01*
X162876369Y-82709965D01*
X162231149Y-82712925D01*
X161614496Y-82717988D01*
X161039342Y-82725154D01*
X160518620Y-82734426D01*
X160065263Y-82745807D01*
X159692202Y-82759298D01*
X159412370Y-82774902D01*
X159395147Y-82776184D01*
X157327207Y-82963435D01*
X155351689Y-83203054D01*
X153467364Y-83495299D01*
X151673001Y-83840430D01*
X149967370Y-84238706D01*
X148349242Y-84690387D01*
X146817386Y-85195731D01*
X145487739Y-85706401D01*
X143987409Y-86379740D01*
X142557102Y-87134038D01*
X141197374Y-87968801D01*
X139908781Y-88883535D01*
X138691880Y-89877746D01*
X137547228Y-90950941D01*
X136475382Y-92102627D01*
X135476898Y-93332310D01*
X134552333Y-94639495D01*
X133702245Y-96023690D01*
X133552707Y-96289029D01*
X133303497Y-96745163D01*
X133070029Y-97187616D01*
X132858064Y-97604389D01*
X132673362Y-97983483D01*
X132521683Y-98312900D01*
X132408789Y-98580639D01*
X132340439Y-98774704D01*
X132323345Y-98849744D01*
X132310299Y-98992343D01*
X110292057Y-98992343D01*
X110296889Y-98953023D01*
X110329808Y-98804257D01*
X110538758Y-98183927D01*
X110845843Y-97587102D01*
X111242991Y-97022937D01*
X111722130Y-96500589D01*
X111961736Y-96296371D01*
X119029049Y-96296371D01*
X119037410Y-96400014D01*
X119086973Y-96457658D01*
X119176920Y-96479530D01*
X119306431Y-96475857D01*
X119323308Y-96474309D01*
X119469708Y-96460300D01*
X119695674Y-96438690D01*
X119974085Y-96412073D01*
X120277819Y-96383042D01*
X120384176Y-96372877D01*
X120982148Y-96319595D01*
X121502081Y-96282755D01*
X121971724Y-96261597D01*
X122418822Y-96255362D01*
X122871120Y-96263290D01*
X123356365Y-96284620D01*
X123438607Y-96289208D01*
X124682550Y-96385965D01*
X125836097Y-96529437D01*
X126905913Y-96720896D01*
X127898661Y-96961614D01*
X128821007Y-97252862D01*
X129168812Y-97382657D01*
X129758502Y-97612899D01*
X130487411Y-96214150D01*
X130698047Y-95813842D01*
X130916813Y-95405012D01*
X131132170Y-95008734D01*
X131332579Y-94646081D01*
X131506504Y-94338127D01*
X131634680Y-94118776D01*
X132538807Y-92713996D01*
X133524872Y-91372310D01*
X134588243Y-90098608D01*
X135724284Y-88897776D01*
X136928364Y-87774701D01*
X138195847Y-86734273D01*
X139522101Y-85781377D01*
X139568143Y-85750594D01*
X140479448Y-85170484D01*
X141432659Y-84615302D01*
X142397073Y-84101752D01*
X143341987Y-83646535D01*
X143828269Y-83432992D01*
X144244435Y-83251874D01*
X144560209Y-83102884D01*
X144777169Y-82985151D01*
X144896889Y-82897806D01*
X144920948Y-82839981D01*
X144915867Y-82833251D01*
X144832116Y-82790924D01*
X144669202Y-82754782D01*
X144423149Y-82724598D01*
X144089980Y-82700146D01*
X143665719Y-82681199D01*
X143146388Y-82667531D01*
X142528011Y-82658913D01*
X141806611Y-82655120D01*
X141791982Y-82655094D01*
X141193678Y-82654973D01*
X140687810Y-82657205D01*
X140259660Y-82662239D01*
X139894509Y-82670526D01*
X139577638Y-82682520D01*
X139294328Y-82698669D01*
X139029860Y-82719427D01*
X138769514Y-82745244D01*
X138737552Y-82748736D01*
X137378110Y-82928220D01*
X136069005Y-83163567D01*
X134792907Y-83459942D01*
X133532483Y-83822512D01*
X132270402Y-84256440D01*
X130989334Y-84766893D01*
X129671947Y-85359037D01*
X129172362Y-85599613D01*
X128114590Y-86138569D01*
X127148875Y-86676286D01*
X126260700Y-87222810D01*
X125435546Y-87788188D01*
X124658893Y-88382470D01*
X123916224Y-89015701D01*
X123193020Y-89697930D01*
X123062800Y-89827704D01*
X122163124Y-90797534D01*
X121358940Y-91806026D01*
X120642212Y-92865083D01*
X120004900Y-93986613D01*
X119438968Y-95182519D01*
X119424024Y-95217299D01*
X119259379Y-95607195D01*
X119139215Y-95910188D01*
X119062711Y-96136505D01*
X119029049Y-96296371D01*
X111961736Y-96296371D01*
X112275188Y-96029213D01*
X112894092Y-95617964D01*
X113353321Y-95374995D01*
X113691608Y-95224225D01*
X114009211Y-95109788D01*
X114331459Y-95026429D01*
X114683679Y-94968893D01*
X115091197Y-94931925D01*
X115579342Y-94910272D01*
X115595519Y-94909804D01*
X116540617Y-94882771D01*
X116822810Y-94206048D01*
X117026523Y-93728975D01*
X117215408Y-93314656D01*
X117408402Y-92924129D01*
X117624443Y-92518431D01*
X117771301Y-92254552D01*
X117887343Y-92044086D01*
X117978242Y-91870532D01*
X118034181Y-91753242D01*
X118046605Y-91711851D01*
X117988251Y-91688528D01*
X117857541Y-91646540D01*
X117719577Y-91605660D01*
X117299971Y-91507412D01*
X116792935Y-91426461D01*
X116217172Y-91365220D01*
X115591388Y-91326101D01*
X115534598Y-91323801D01*
X115190077Y-91312690D01*
X114921835Y-91311037D01*
X114699252Y-91320683D01*
X114491706Y-91343469D01*
X114268575Y-91381234D01*
X114133181Y-91408022D01*
X113082803Y-91663067D01*
X112094076Y-91985712D01*
X111171063Y-92372890D01*
X110317828Y-92821534D01*
X109538434Y-93328577D01*
X108836947Y-93890952D01*
X108217429Y-94505593D01*
X107683945Y-95169432D01*
X107240557Y-95879403D01*
X106891331Y-96632438D01*
X106773136Y-96962576D01*
X106582766Y-97691750D01*
X106466758Y-98476527D01*
X106425332Y-99295119D01*
X103702019Y-99295119D01*
X103705244Y-98770138D01*
X103714751Y-98379867D01*
X103725126Y-98074349D01*
X103738907Y-97831178D01*
X103758629Y-97627947D01*
X103786829Y-97442251D01*
X103826044Y-97251681D01*
X103878811Y-97033832D01*
X103920001Y-96873086D01*
X104179117Y-96008631D01*
X104493061Y-95216546D01*
X104871740Y-94471896D01*
X104879221Y-94458755D01*
X105427268Y-93604233D01*
X106065081Y-92799491D01*
X106785159Y-92049302D01*
X107580001Y-91358443D01*
X108442108Y-90731688D01*
X109363978Y-90173811D01*
X110338111Y-89689589D01*
X111357006Y-89283795D01*
X112413163Y-88961205D01*
X113499082Y-88726594D01*
X114003734Y-88649900D01*
X114397769Y-88610843D01*
X114859830Y-88585910D01*
X115359338Y-88575038D01*
X115865716Y-88578165D01*
X116348387Y-88595229D01*
X116776771Y-88626168D01*
X117028143Y-88656073D01*
X117331693Y-88703198D01*
X117602324Y-88752355D01*
X117866061Y-88809783D01*
X118148932Y-88881719D01*
X118476961Y-88974402D01*
X118876175Y-89094070D01*
X118951460Y-89117077D01*
X119662204Y-89334704D01*
X120766057Y-88270410D01*
X121226633Y-87828884D01*
X121627539Y-87450892D01*
X121983902Y-87123214D01*
X122310853Y-86832633D01*
X122623522Y-86565930D01*
X122937037Y-86309887D01*
X123266529Y-86051284D01*
X123575841Y-85815527D01*
X124453861Y-85178364D01*
X125334316Y-84592059D01*
X126247936Y-84037408D01*
X127225451Y-83495208D01*
X127618354Y-83289319D01*
X129240984Y-82510257D01*
X130903744Y-81827520D01*
X132600161Y-81242958D01*
X134323765Y-80758419D01*
X136068085Y-80375749D01*
X137826650Y-80096799D01*
X139339328Y-79941734D01*
X139651507Y-79924274D01*
X140051693Y-79911861D01*
X140520848Y-79904294D01*
X141039934Y-79901370D01*
X141589913Y-79902888D01*
G37*
%TD.AperFunction*%
%TD*%
D13*
%TO.P,R2,1*%
%TO.N,Net-(U1-PA2)*%
X144920000Y-98200000D03*
%TO.P,R2,2*%
%TO.N,Net-(D2-A)*%
X150000000Y-98200000D03*
%TD*%
%TO.P,R1,1*%
%TO.N,Net-(U1-PA1)*%
X127500000Y-97800000D03*
%TO.P,R1,2*%
%TO.N,Net-(D1-A)*%
X122420000Y-97800000D03*
%TD*%
D14*
%TO.P,D2,1,K*%
%TO.N,Net-(BT1--)*%
X149900000Y-111000000D03*
D15*
%TO.P,D2,2,A*%
%TO.N,Net-(D2-A)*%
X147360000Y-111000000D03*
%TD*%
D14*
%TO.P,D1,1,K*%
%TO.N,Net-(BT1--)*%
X126000000Y-111100000D03*
D15*
%TO.P,D1,2,A*%
%TO.N,Net-(D1-A)*%
X123460000Y-111100000D03*
%TD*%
D16*
%TO.P,J1,1,Pin_1*%
%TO.N,Net-(J1-Pin_1)*%
X139160000Y-143700000D03*
D17*
%TO.P,J1,2,Pin_2*%
%TO.N,Net-(J1-Pin_2)*%
X141700000Y-143700000D03*
%TO.P,J1,3,Pin_3*%
%TO.N,Net-(BT1--)*%
X144240000Y-143700000D03*
%TD*%
D16*
%TO.P,SW1,1,A*%
%TO.N,unconnected-(SW1A-A-Pad1)*%
X139120000Y-139600000D03*
D17*
%TO.P,SW1,2,B*%
%TO.N,Net-(J1-Pin_1)*%
X141660000Y-139600000D03*
%TO.P,SW1,3,C*%
%TO.N,Net-(BT1-+)*%
X144200000Y-139600000D03*
%TD*%
D18*
%TO.N,Net-(BT1-+)*%
X139000000Y-141600000D03*
%TO.N,Net-(U1-PA2)*%
X137300000Y-114000000D03*
X134400000Y-114000000D03*
%TD*%
D19*
%TO.N,Net-(BT1-+)*%
X142200000Y-141600000D02*
X144200000Y-139600000D01*
X139000000Y-141600000D02*
X142200000Y-141600000D01*
D20*
%TO.N,Net-(U1-PA2)*%
X134400000Y-114000000D02*
X137300000Y-114000000D01*
D21*
%TO.N,Net-(BT1--)*%
X125800000Y-111100000D02*
X125800000Y-111300000D01*
%TD*%
M02*
