%TF.GenerationSoftware,KiCad,Pcbnew,9.0.7-9.0.7~ubuntu24.04.1*%
%TF.CreationDate,2026-05-07T22:53:49+09:00*%
%TF.ProjectId,singapore-board,73696e67-6170-46f7-9265-2d626f617264,rev?*%
%TF.SameCoordinates,Original*%
%TF.FileFunction,Legend,Top*%
%TF.FilePolarity,Positive*%
%FSLAX46Y46*%
G04 Gerber Fmt 4.6, Leading zero omitted, Abs format (unit mm)*
G04 Created by KiCad (PCBNEW 9.0.7-9.0.7~ubuntu24.04.1) date 2026-05-07 22:53:49*
%MOMM*%
%LPD*%
G01*
G04 APERTURE LIST*
%ADD10C,0.150000*%
%ADD11C,0.300000*%
%ADD12C,0.120000*%
%ADD13C,0.100000*%
G04 APERTURE END LIST*
D10*
X147891905Y-114414819D02*
X147891905Y-113414819D01*
X147891905Y-113414819D02*
X148130000Y-113414819D01*
X148130000Y-113414819D02*
X148272857Y-113462438D01*
X148272857Y-113462438D02*
X148368095Y-113557676D01*
X148368095Y-113557676D02*
X148415714Y-113652914D01*
X148415714Y-113652914D02*
X148463333Y-113843390D01*
X148463333Y-113843390D02*
X148463333Y-113986247D01*
X148463333Y-113986247D02*
X148415714Y-114176723D01*
X148415714Y-114176723D02*
X148368095Y-114271961D01*
X148368095Y-114271961D02*
X148272857Y-114367200D01*
X148272857Y-114367200D02*
X148130000Y-114414819D01*
X148130000Y-114414819D02*
X147891905Y-114414819D01*
X148844286Y-113510057D02*
X148891905Y-113462438D01*
X148891905Y-113462438D02*
X148987143Y-113414819D01*
X148987143Y-113414819D02*
X149225238Y-113414819D01*
X149225238Y-113414819D02*
X149320476Y-113462438D01*
X149320476Y-113462438D02*
X149368095Y-113510057D01*
X149368095Y-113510057D02*
X149415714Y-113605295D01*
X149415714Y-113605295D02*
X149415714Y-113700533D01*
X149415714Y-113700533D02*
X149368095Y-113843390D01*
X149368095Y-113843390D02*
X148796667Y-114414819D01*
X148796667Y-114414819D02*
X149415714Y-114414819D01*
X123991905Y-114514819D02*
X123991905Y-113514819D01*
X123991905Y-113514819D02*
X124230000Y-113514819D01*
X124230000Y-113514819D02*
X124372857Y-113562438D01*
X124372857Y-113562438D02*
X124468095Y-113657676D01*
X124468095Y-113657676D02*
X124515714Y-113752914D01*
X124515714Y-113752914D02*
X124563333Y-113943390D01*
X124563333Y-113943390D02*
X124563333Y-114086247D01*
X124563333Y-114086247D02*
X124515714Y-114276723D01*
X124515714Y-114276723D02*
X124468095Y-114371961D01*
X124468095Y-114371961D02*
X124372857Y-114467200D01*
X124372857Y-114467200D02*
X124230000Y-114514819D01*
X124230000Y-114514819D02*
X123991905Y-114514819D01*
X125515714Y-114514819D02*
X124944286Y-114514819D01*
X125230000Y-114514819D02*
X125230000Y-113514819D01*
X125230000Y-113514819D02*
X125134762Y-113657676D01*
X125134762Y-113657676D02*
X125039524Y-113752914D01*
X125039524Y-113752914D02*
X124944286Y-113800533D01*
D11*
X143448572Y-151969757D02*
X143305715Y-151898328D01*
X143305715Y-151898328D02*
X143091429Y-151898328D01*
X143091429Y-151898328D02*
X142877143Y-151969757D01*
X142877143Y-151969757D02*
X142734286Y-152112614D01*
X142734286Y-152112614D02*
X142662857Y-152255471D01*
X142662857Y-152255471D02*
X142591429Y-152541185D01*
X142591429Y-152541185D02*
X142591429Y-152755471D01*
X142591429Y-152755471D02*
X142662857Y-153041185D01*
X142662857Y-153041185D02*
X142734286Y-153184042D01*
X142734286Y-153184042D02*
X142877143Y-153326900D01*
X142877143Y-153326900D02*
X143091429Y-153398328D01*
X143091429Y-153398328D02*
X143234286Y-153398328D01*
X143234286Y-153398328D02*
X143448572Y-153326900D01*
X143448572Y-153326900D02*
X143520000Y-153255471D01*
X143520000Y-153255471D02*
X143520000Y-152755471D01*
X143520000Y-152755471D02*
X143234286Y-152755471D01*
X144377143Y-151898328D02*
X144377143Y-152255471D01*
X144020000Y-152112614D02*
X144377143Y-152255471D01*
X144377143Y-152255471D02*
X144734286Y-152112614D01*
X144162857Y-152541185D02*
X144377143Y-152255471D01*
X144377143Y-152255471D02*
X144591429Y-152541185D01*
X145520000Y-151898328D02*
X145520000Y-152255471D01*
X145162857Y-152112614D02*
X145520000Y-152255471D01*
X145520000Y-152255471D02*
X145877143Y-152112614D01*
X145305714Y-152541185D02*
X145520000Y-152255471D01*
X145520000Y-152255471D02*
X145734286Y-152541185D01*
X146662857Y-151898328D02*
X146662857Y-152255471D01*
X146305714Y-152112614D02*
X146662857Y-152255471D01*
X146662857Y-152255471D02*
X147020000Y-152112614D01*
X146448571Y-152541185D02*
X146662857Y-152255471D01*
X146662857Y-152255471D02*
X146877143Y-152541185D01*
D10*
X151166666Y-80654819D02*
X150833333Y-80178628D01*
X150595238Y-80654819D02*
X150595238Y-79654819D01*
X150595238Y-79654819D02*
X150976190Y-79654819D01*
X150976190Y-79654819D02*
X151071428Y-79702438D01*
X151071428Y-79702438D02*
X151119047Y-79750057D01*
X151119047Y-79750057D02*
X151166666Y-79845295D01*
X151166666Y-79845295D02*
X151166666Y-79988152D01*
X151166666Y-79988152D02*
X151119047Y-80083390D01*
X151119047Y-80083390D02*
X151071428Y-80131009D01*
X151071428Y-80131009D02*
X150976190Y-80178628D01*
X150976190Y-80178628D02*
X150595238Y-80178628D01*
X151595238Y-80131009D02*
X151928571Y-80131009D01*
X152071428Y-80654819D02*
X151595238Y-80654819D01*
X151595238Y-80654819D02*
X151595238Y-79654819D01*
X151595238Y-79654819D02*
X152071428Y-79654819D01*
X152833333Y-80131009D02*
X152500000Y-80131009D01*
X152500000Y-80654819D02*
X152500000Y-79654819D01*
X152500000Y-79654819D02*
X152976190Y-79654819D01*
X153500000Y-79654819D02*
X153500000Y-79892914D01*
X153261905Y-79797676D02*
X153500000Y-79892914D01*
X153500000Y-79892914D02*
X153738095Y-79797676D01*
X153357143Y-80083390D02*
X153500000Y-79892914D01*
X153500000Y-79892914D02*
X153642857Y-80083390D01*
X154261905Y-79654819D02*
X154261905Y-79892914D01*
X154023810Y-79797676D02*
X154261905Y-79892914D01*
X154261905Y-79892914D02*
X154500000Y-79797676D01*
X154119048Y-80083390D02*
X154261905Y-79892914D01*
X154261905Y-79892914D02*
X154404762Y-80083390D01*
X136234819Y-144033333D02*
X136949104Y-144033333D01*
X136949104Y-144033333D02*
X137091961Y-144080952D01*
X137091961Y-144080952D02*
X137187200Y-144176190D01*
X137187200Y-144176190D02*
X137234819Y-144319047D01*
X137234819Y-144319047D02*
X137234819Y-144414285D01*
X137234819Y-143033333D02*
X137234819Y-143604761D01*
X137234819Y-143319047D02*
X136234819Y-143319047D01*
X136234819Y-143319047D02*
X136377676Y-143414285D01*
X136377676Y-143414285D02*
X136472914Y-143509523D01*
X136472914Y-143509523D02*
X136520533Y-143604761D01*
X136757200Y-140933332D02*
X136804819Y-140790475D01*
X136804819Y-140790475D02*
X136804819Y-140552380D01*
X136804819Y-140552380D02*
X136757200Y-140457142D01*
X136757200Y-140457142D02*
X136709580Y-140409523D01*
X136709580Y-140409523D02*
X136614342Y-140361904D01*
X136614342Y-140361904D02*
X136519104Y-140361904D01*
X136519104Y-140361904D02*
X136423866Y-140409523D01*
X136423866Y-140409523D02*
X136376247Y-140457142D01*
X136376247Y-140457142D02*
X136328628Y-140552380D01*
X136328628Y-140552380D02*
X136281009Y-140742856D01*
X136281009Y-140742856D02*
X136233390Y-140838094D01*
X136233390Y-140838094D02*
X136185771Y-140885713D01*
X136185771Y-140885713D02*
X136090533Y-140933332D01*
X136090533Y-140933332D02*
X135995295Y-140933332D01*
X135995295Y-140933332D02*
X135900057Y-140885713D01*
X135900057Y-140885713D02*
X135852438Y-140838094D01*
X135852438Y-140838094D02*
X135804819Y-140742856D01*
X135804819Y-140742856D02*
X135804819Y-140504761D01*
X135804819Y-140504761D02*
X135852438Y-140361904D01*
X135804819Y-140028570D02*
X136804819Y-139790475D01*
X136804819Y-139790475D02*
X136090533Y-139599999D01*
X136090533Y-139599999D02*
X136804819Y-139409523D01*
X136804819Y-139409523D02*
X135804819Y-139171428D01*
X136804819Y-138266666D02*
X136804819Y-138838094D01*
X136804819Y-138552380D02*
X135804819Y-138552380D01*
X135804819Y-138552380D02*
X135947676Y-138647618D01*
X135947676Y-138647618D02*
X136042914Y-138742856D01*
X136042914Y-138742856D02*
X136090533Y-138838094D01*
D12*
%TO.C,R2*%
X145540000Y-97280000D02*
X149380000Y-97280000D01*
X145540000Y-99120000D02*
X149380000Y-99120000D01*
%TO.C,R1*%
X126880000Y-98720000D02*
X123040000Y-98720000D01*
X126880000Y-96880000D02*
X123040000Y-96880000D01*
%TO.C,D2*%
X150190000Y-112236000D02*
X150190000Y-112080000D01*
X150190000Y-109920000D02*
X150190000Y-109764000D01*
X150190000Y-112235516D02*
G75*
G02*
X146958563Y-112080000I-1560000J1235516D01*
G01*
X149670961Y-112080000D02*
G75*
G02*
X147589039Y-112080000I-1040961J1080000D01*
G01*
X147589039Y-109920000D02*
G75*
G02*
X149670961Y-109920000I1040961J-1080000D01*
G01*
X146958563Y-109920000D02*
G75*
G02*
X150190000Y-109764484I1671437J-1080000D01*
G01*
%TO.C,D1*%
X126290000Y-112336000D02*
X126290000Y-112180000D01*
X126290000Y-110020000D02*
X126290000Y-109864000D01*
X126290000Y-112335516D02*
G75*
G02*
X123058563Y-112180000I-1560000J1235516D01*
G01*
X125770961Y-112180000D02*
G75*
G02*
X123689039Y-112180000I-1040961J1080000D01*
G01*
X123689039Y-110020000D02*
G75*
G02*
X125770961Y-110020000I1040961J-1080000D01*
G01*
X123058563Y-110020000D02*
G75*
G02*
X126290000Y-109864484I1671437J-1080000D01*
G01*
D13*
%TO.C,G\u002A\u002A\u002A*%
X128660000Y-110670000D02*
G75*
G02*
X117788142Y-110670000I-5435929J0D01*
G01*
X117788142Y-110670000D02*
G75*
G02*
X128660000Y-110670000I5435929J0D01*
G01*
X126780000Y-110970000D02*
G75*
G02*
X122862906Y-110970000I-1958547J0D01*
G01*
X122862906Y-110970000D02*
G75*
G02*
X126780000Y-110970000I1958547J0D01*
G01*
X152311263Y-110670000D02*
G75*
G02*
X141439405Y-110670000I-5435929J0D01*
G01*
X141439405Y-110670000D02*
G75*
G02*
X152311263Y-110670000I5435929J0D01*
G01*
X150510000Y-110800000D02*
G75*
G02*
X146592906Y-110800000I-1958547J0D01*
G01*
X146592906Y-110800000D02*
G75*
G02*
X150510000Y-110800000I1958547J0D01*
G01*
X120670000Y-96310000D02*
X119400000Y-96420000D01*
X119180000Y-96450000D01*
X119060000Y-96420000D01*
X119160000Y-95760000D01*
X120670000Y-96310000D01*
G36*
X120670000Y-96310000D02*
G01*
X119400000Y-96420000D01*
X119180000Y-96450000D01*
X119060000Y-96420000D01*
X119160000Y-95760000D01*
X120670000Y-96310000D01*
G37*
X143480000Y-82710000D02*
X143940000Y-82700000D01*
X144740000Y-82760000D01*
X144900000Y-82880000D01*
X144250000Y-83210000D01*
X142770000Y-83860000D01*
X141000000Y-84810000D01*
X139460000Y-85760000D01*
X137520000Y-87230000D01*
X135840000Y-88730000D01*
X134020000Y-90700000D01*
X132340000Y-92960000D01*
X130680000Y-95710000D01*
X130030000Y-97060000D01*
X129740000Y-97570000D01*
X128810000Y-97210000D01*
X127940000Y-96950000D01*
X126690000Y-96650000D01*
X124730000Y-96320000D01*
X122880000Y-96210000D01*
X121370000Y-96280000D01*
X119060000Y-96380000D01*
X119090000Y-95770000D01*
X121060000Y-92090000D01*
X122610000Y-90330000D01*
X124350000Y-88690000D01*
X126220000Y-87260000D01*
X128750000Y-85770000D01*
X131350000Y-84630000D01*
X134090000Y-83680000D01*
X136220000Y-83170000D01*
X139350000Y-82700000D01*
X142490000Y-82680000D01*
X143480000Y-82710000D01*
G36*
X143480000Y-82710000D02*
G01*
X143940000Y-82700000D01*
X144740000Y-82760000D01*
X144900000Y-82880000D01*
X144250000Y-83210000D01*
X142770000Y-83860000D01*
X141000000Y-84810000D01*
X139460000Y-85760000D01*
X137520000Y-87230000D01*
X135840000Y-88730000D01*
X134020000Y-90700000D01*
X132340000Y-92960000D01*
X130680000Y-95710000D01*
X130030000Y-97060000D01*
X129740000Y-97570000D01*
X128810000Y-97210000D01*
X127940000Y-96950000D01*
X126690000Y-96650000D01*
X124730000Y-96320000D01*
X122880000Y-96210000D01*
X121370000Y-96280000D01*
X119060000Y-96380000D01*
X119090000Y-95770000D01*
X121060000Y-92090000D01*
X122610000Y-90330000D01*
X124350000Y-88690000D01*
X126220000Y-87260000D01*
X128750000Y-85770000D01*
X131350000Y-84630000D01*
X134090000Y-83680000D01*
X136220000Y-83170000D01*
X139350000Y-82700000D01*
X142490000Y-82680000D01*
X143480000Y-82710000D01*
G37*
X122886019Y-110670000D02*
X122862906Y-111200000D01*
X123020000Y-111760000D01*
X123350000Y-112330000D01*
X123950000Y-112770000D01*
X124540000Y-112940000D01*
X124821453Y-112928547D01*
X125470000Y-112850000D01*
X126130000Y-112470000D01*
X126500000Y-112060000D01*
X126760000Y-111530000D01*
X126780000Y-110970000D01*
X128651715Y-110970000D01*
X128460000Y-112100000D01*
X128220000Y-112680000D01*
X127760000Y-113620000D01*
X127240000Y-114300000D01*
X126440000Y-115020000D01*
X125580000Y-115540000D01*
X124890000Y-115800000D01*
X124260000Y-115980000D01*
X123300000Y-116080000D01*
X122870000Y-116050000D01*
X122070000Y-115950000D01*
X121400000Y-115770000D01*
X120510000Y-115360000D01*
X119860000Y-114890000D01*
X119340000Y-114430000D01*
X118870000Y-113860000D01*
X118530000Y-113340000D01*
X118220000Y-112690000D01*
X117990000Y-112020000D01*
X117840000Y-111160000D01*
X117840000Y-110230000D01*
X122886019Y-110670000D01*
G36*
X122886019Y-110670000D02*
G01*
X122862906Y-111200000D01*
X123020000Y-111760000D01*
X123350000Y-112330000D01*
X123950000Y-112770000D01*
X124540000Y-112940000D01*
X124821453Y-112928547D01*
X125470000Y-112850000D01*
X126130000Y-112470000D01*
X126500000Y-112060000D01*
X126760000Y-111530000D01*
X126780000Y-110970000D01*
X128651715Y-110970000D01*
X128460000Y-112100000D01*
X128220000Y-112680000D01*
X127760000Y-113620000D01*
X127240000Y-114300000D01*
X126440000Y-115020000D01*
X125580000Y-115540000D01*
X124890000Y-115800000D01*
X124260000Y-115980000D01*
X123300000Y-116080000D01*
X122870000Y-116050000D01*
X122070000Y-115950000D01*
X121400000Y-115770000D01*
X120510000Y-115360000D01*
X119860000Y-114890000D01*
X119340000Y-114430000D01*
X118870000Y-113860000D01*
X118530000Y-113340000D01*
X118220000Y-112690000D01*
X117990000Y-112020000D01*
X117840000Y-111160000D01*
X117840000Y-110230000D01*
X122886019Y-110670000D01*
G37*
X146592906Y-110260000D02*
X146592906Y-111110000D01*
X146750000Y-111680000D01*
X147230000Y-112300000D01*
X147780000Y-112640000D01*
X148370000Y-112810000D01*
X148970000Y-112750000D01*
X149480000Y-112550000D01*
X150030000Y-112150000D01*
X150340000Y-111670000D01*
X150490000Y-111220000D01*
X150510000Y-110800000D01*
X152309708Y-110800000D01*
X152140000Y-111780000D01*
X152080000Y-112140000D01*
X151680000Y-113120000D01*
X151290000Y-113780000D01*
X150770000Y-114410000D01*
X150120000Y-114990000D01*
X149380000Y-115490000D01*
X148750000Y-115730000D01*
X147860000Y-115980000D01*
X147030000Y-116060000D01*
X146660000Y-116105929D01*
X145480000Y-115910000D01*
X144720000Y-115640000D01*
X144040000Y-115280000D01*
X143250000Y-114670000D01*
X142600000Y-113980000D01*
X142030000Y-113130000D01*
X141740000Y-112350000D01*
X141530000Y-111450000D01*
X141439405Y-110570000D01*
X141560000Y-109590000D01*
X146592906Y-110260000D01*
G36*
X146592906Y-110260000D02*
G01*
X146592906Y-111110000D01*
X146750000Y-111680000D01*
X147230000Y-112300000D01*
X147780000Y-112640000D01*
X148370000Y-112810000D01*
X148970000Y-112750000D01*
X149480000Y-112550000D01*
X150030000Y-112150000D01*
X150340000Y-111670000D01*
X150490000Y-111220000D01*
X150510000Y-110800000D01*
X152309708Y-110800000D01*
X152140000Y-111780000D01*
X152080000Y-112140000D01*
X151680000Y-113120000D01*
X151290000Y-113780000D01*
X150770000Y-114410000D01*
X150120000Y-114990000D01*
X149380000Y-115490000D01*
X148750000Y-115730000D01*
X147860000Y-115980000D01*
X147030000Y-116060000D01*
X146660000Y-116105929D01*
X145480000Y-115910000D01*
X144720000Y-115640000D01*
X144040000Y-115280000D01*
X143250000Y-114670000D01*
X142600000Y-113980000D01*
X142030000Y-113130000D01*
X141740000Y-112350000D01*
X141530000Y-111450000D01*
X141439405Y-110570000D01*
X141560000Y-109590000D01*
X146592906Y-110260000D01*
G37*
X148250000Y-105440000D02*
X149220000Y-105800000D01*
X150000000Y-106260000D01*
X150880000Y-107030000D01*
X151410000Y-107760000D01*
X151880000Y-108630000D01*
X152090000Y-109320000D01*
X152200000Y-109840000D01*
X152311263Y-110560000D01*
X152309708Y-110800012D01*
X150510000Y-110800000D01*
X150480000Y-110270000D01*
X150260000Y-109780000D01*
X149860000Y-109290000D01*
X149420000Y-109000000D01*
X149000000Y-108850000D01*
X148551453Y-108790000D01*
X148100000Y-108841453D01*
X147720000Y-109000000D01*
X147380000Y-109180000D01*
X147030000Y-109510000D01*
X146830000Y-109790000D01*
X146710000Y-110050000D01*
X146620000Y-110260000D01*
X144710000Y-110010000D01*
X141560000Y-109590000D01*
X141790000Y-108820000D01*
X142230000Y-107900000D01*
X142750000Y-107180000D01*
X143310000Y-106610000D01*
X144050000Y-106080000D01*
X144870000Y-105640000D01*
X145600000Y-105420000D01*
X146300000Y-105300000D01*
X147170000Y-105270000D01*
X148250000Y-105440000D01*
G36*
X148250000Y-105440000D02*
G01*
X149220000Y-105800000D01*
X150000000Y-106260000D01*
X150880000Y-107030000D01*
X151410000Y-107760000D01*
X151880000Y-108630000D01*
X152090000Y-109320000D01*
X152200000Y-109840000D01*
X152311263Y-110560000D01*
X152309708Y-110800012D01*
X150510000Y-110800000D01*
X150480000Y-110270000D01*
X150260000Y-109780000D01*
X149860000Y-109290000D01*
X149420000Y-109000000D01*
X149000000Y-108850000D01*
X148551453Y-108790000D01*
X148100000Y-108841453D01*
X147720000Y-109000000D01*
X147380000Y-109180000D01*
X147030000Y-109510000D01*
X146830000Y-109790000D01*
X146710000Y-110050000D01*
X146620000Y-110260000D01*
X144710000Y-110010000D01*
X141560000Y-109590000D01*
X141790000Y-108820000D01*
X142230000Y-107900000D01*
X142750000Y-107180000D01*
X143310000Y-106610000D01*
X144050000Y-106080000D01*
X144870000Y-105640000D01*
X145600000Y-105420000D01*
X146300000Y-105300000D01*
X147170000Y-105270000D01*
X148250000Y-105440000D01*
G37*
X123790000Y-105300000D02*
X124570000Y-105440000D01*
X125180000Y-105630000D01*
X125840000Y-105940000D01*
X126430000Y-106310000D01*
X126990000Y-106800000D01*
X127370000Y-107220000D01*
X127740000Y-107690000D01*
X128170000Y-108530000D01*
X128510000Y-109490000D01*
X128520000Y-109690000D01*
X128570000Y-110020000D01*
X128610000Y-110410000D01*
X128630000Y-110850000D01*
X128620000Y-110960000D01*
X126780000Y-110970000D01*
X126780000Y-110730000D01*
X126730000Y-110360000D01*
X126590000Y-110030000D01*
X126410000Y-109740000D01*
X126110000Y-109430000D01*
X125610000Y-109130000D01*
X125250000Y-109010000D01*
X124930000Y-108970000D01*
X124570000Y-108990000D01*
X124200000Y-109060000D01*
X124000000Y-109160000D01*
X123640000Y-109360000D01*
X123320000Y-109630000D01*
X123150000Y-109870000D01*
X123010000Y-110120000D01*
X122890000Y-110460000D01*
X122886019Y-110669998D01*
X117840000Y-110230000D01*
X117910000Y-109770000D01*
X118020000Y-109200000D01*
X118200000Y-108670000D01*
X118670000Y-107740000D01*
X119080000Y-107210000D01*
X119480000Y-106780000D01*
X119990000Y-106330000D01*
X120920000Y-105770000D01*
X121560000Y-105540000D01*
X122300000Y-105350000D01*
X123110000Y-105270000D01*
X123790000Y-105300000D01*
G36*
X123790000Y-105300000D02*
G01*
X124570000Y-105440000D01*
X125180000Y-105630000D01*
X125840000Y-105940000D01*
X126430000Y-106310000D01*
X126990000Y-106800000D01*
X127370000Y-107220000D01*
X127740000Y-107690000D01*
X128170000Y-108530000D01*
X128510000Y-109490000D01*
X128520000Y-109690000D01*
X128570000Y-110020000D01*
X128610000Y-110410000D01*
X128630000Y-110850000D01*
X128620000Y-110960000D01*
X126780000Y-110970000D01*
X126780000Y-110730000D01*
X126730000Y-110360000D01*
X126590000Y-110030000D01*
X126410000Y-109740000D01*
X126110000Y-109430000D01*
X125610000Y-109130000D01*
X125250000Y-109010000D01*
X124930000Y-108970000D01*
X124570000Y-108990000D01*
X124200000Y-109060000D01*
X124000000Y-109160000D01*
X123640000Y-109360000D01*
X123320000Y-109630000D01*
X123150000Y-109870000D01*
X123010000Y-110120000D01*
X122890000Y-110460000D01*
X122886019Y-110669998D01*
X117840000Y-110230000D01*
X117910000Y-109770000D01*
X118020000Y-109200000D01*
X118200000Y-108670000D01*
X118670000Y-107740000D01*
X119080000Y-107210000D01*
X119480000Y-106780000D01*
X119990000Y-106330000D01*
X120920000Y-105770000D01*
X121560000Y-105540000D01*
X122300000Y-105350000D01*
X123110000Y-105270000D01*
X123790000Y-105300000D01*
G37*
X134150000Y-122870000D02*
X134910000Y-123180000D01*
X136000000Y-123740000D01*
X136630000Y-124150000D01*
X137430000Y-124970000D01*
X137770000Y-125410000D01*
X138040000Y-125840000D01*
X138230000Y-126270000D01*
X138340000Y-126690000D01*
X138390000Y-127100000D01*
X138430000Y-127590000D01*
X138390000Y-128050000D01*
X138300000Y-128490000D01*
X138120000Y-128860000D01*
X137850000Y-129170000D01*
X137480000Y-129410000D01*
X137040000Y-129590000D01*
X136510000Y-129720000D01*
X135880000Y-129780000D01*
X135300000Y-129780000D01*
X134690000Y-129710000D01*
X134170000Y-129590000D01*
X133520000Y-129370000D01*
X132710000Y-128960000D01*
X131650000Y-128390000D01*
X131090000Y-128110000D01*
X130260000Y-127820000D01*
X129450000Y-127600000D01*
X128560000Y-127480000D01*
X127650000Y-127430000D01*
X127220000Y-127450000D01*
X126840000Y-127490000D01*
X126440000Y-127550000D01*
X125990000Y-127640000D01*
X125550000Y-127770000D01*
X125020000Y-127940000D01*
X124410000Y-128170000D01*
X123500000Y-128560000D01*
X122910000Y-128830000D01*
X122590000Y-128970000D01*
X122410000Y-129040000D01*
X122030000Y-129190000D01*
X121640000Y-129330000D01*
X121470000Y-129370000D01*
X121090000Y-129400000D01*
X120220000Y-129400000D01*
X119750000Y-129380000D01*
X119520000Y-129330000D01*
X119250000Y-129150000D01*
X119130000Y-129000000D01*
X118960000Y-128740000D01*
X118810000Y-128360000D01*
X118740000Y-127970000D01*
X118730000Y-127520000D01*
X118770000Y-127050000D01*
X118880000Y-126610000D01*
X119060000Y-126160000D01*
X119370000Y-125660000D01*
X119800000Y-125160000D01*
X120570000Y-124450000D01*
X121240000Y-123940000D01*
X122030000Y-123490000D01*
X122670000Y-123130000D01*
X122920000Y-123360000D01*
X123520000Y-123880000D01*
X124110000Y-124250000D01*
X124770000Y-124550000D01*
X125510000Y-124760000D01*
X126290000Y-124910000D01*
X127190000Y-125000000D01*
X127890000Y-125000000D01*
X128840000Y-124910000D01*
X129870000Y-124710000D01*
X131100000Y-124270000D01*
X131800000Y-123900000D01*
X132610000Y-123270000D01*
X133110000Y-122800000D01*
X133290000Y-122610000D01*
X134150000Y-122870000D01*
G36*
X134150000Y-122870000D02*
G01*
X134910000Y-123180000D01*
X136000000Y-123740000D01*
X136630000Y-124150000D01*
X137430000Y-124970000D01*
X137770000Y-125410000D01*
X138040000Y-125840000D01*
X138230000Y-126270000D01*
X138340000Y-126690000D01*
X138390000Y-127100000D01*
X138430000Y-127590000D01*
X138390000Y-128050000D01*
X138300000Y-128490000D01*
X138120000Y-128860000D01*
X137850000Y-129170000D01*
X137480000Y-129410000D01*
X137040000Y-129590000D01*
X136510000Y-129720000D01*
X135880000Y-129780000D01*
X135300000Y-129780000D01*
X134690000Y-129710000D01*
X134170000Y-129590000D01*
X133520000Y-129370000D01*
X132710000Y-128960000D01*
X131650000Y-128390000D01*
X131090000Y-128110000D01*
X130260000Y-127820000D01*
X129450000Y-127600000D01*
X128560000Y-127480000D01*
X127650000Y-127430000D01*
X127220000Y-127450000D01*
X126840000Y-127490000D01*
X126440000Y-127550000D01*
X125990000Y-127640000D01*
X125550000Y-127770000D01*
X125020000Y-127940000D01*
X124410000Y-128170000D01*
X123500000Y-128560000D01*
X122910000Y-128830000D01*
X122590000Y-128970000D01*
X122410000Y-129040000D01*
X122030000Y-129190000D01*
X121640000Y-129330000D01*
X121470000Y-129370000D01*
X121090000Y-129400000D01*
X120220000Y-129400000D01*
X119750000Y-129380000D01*
X119520000Y-129330000D01*
X119250000Y-129150000D01*
X119130000Y-129000000D01*
X118960000Y-128740000D01*
X118810000Y-128360000D01*
X118740000Y-127970000D01*
X118730000Y-127520000D01*
X118770000Y-127050000D01*
X118880000Y-126610000D01*
X119060000Y-126160000D01*
X119370000Y-125660000D01*
X119800000Y-125160000D01*
X120570000Y-124450000D01*
X121240000Y-123940000D01*
X122030000Y-123490000D01*
X122670000Y-123130000D01*
X122920000Y-123360000D01*
X123520000Y-123880000D01*
X124110000Y-124250000D01*
X124770000Y-124550000D01*
X125510000Y-124760000D01*
X126290000Y-124910000D01*
X127190000Y-125000000D01*
X127890000Y-125000000D01*
X128840000Y-124910000D01*
X129870000Y-124710000D01*
X131100000Y-124270000D01*
X131800000Y-123900000D01*
X132610000Y-123270000D01*
X133110000Y-122800000D01*
X133290000Y-122610000D01*
X134150000Y-122870000D01*
G37*
X174940000Y-92410000D02*
X177290000Y-92810000D01*
X179590000Y-93400000D01*
X181320000Y-94070000D01*
X182580000Y-94620000D01*
X183780000Y-95270000D01*
X185440000Y-96210000D01*
X186710000Y-97130000D01*
X188240000Y-98330000D01*
X189770000Y-99810000D01*
X191200000Y-101350000D01*
X192370000Y-102830000D01*
X193150000Y-103980000D01*
X193850000Y-105040000D01*
X194820000Y-106810000D01*
X195200000Y-107560000D01*
X195690000Y-108870000D01*
X196060000Y-110110000D01*
X196360000Y-111530000D01*
X196530000Y-113160000D01*
X196470000Y-114160000D01*
X196380000Y-115840000D01*
X196200000Y-117290000D01*
X195920000Y-119080000D01*
X195550000Y-120630000D01*
X195400000Y-121180000D01*
X195100000Y-122140000D01*
X194570000Y-123550000D01*
X193920000Y-125050000D01*
X193160000Y-126470000D01*
X192340000Y-127730000D01*
X191310000Y-129350000D01*
X190730000Y-129930000D01*
X189330000Y-131420000D01*
X187870000Y-132890000D01*
X186540000Y-134060000D01*
X185240000Y-135160000D01*
X183440000Y-136530000D01*
X182140000Y-137480000D01*
X180710000Y-138510000D01*
X179840000Y-139130000D01*
X179770000Y-138910000D01*
X179700000Y-138150000D01*
X179680000Y-137310000D01*
X179700000Y-136740000D01*
X179770000Y-136120000D01*
X179980000Y-135390000D01*
X180420000Y-134280000D01*
X181050000Y-133100000D01*
X182300000Y-131360000D01*
X183380000Y-129930000D01*
X184490000Y-128570000D01*
X185380000Y-127280000D01*
X186180000Y-125870000D01*
X186620000Y-124920000D01*
X187050000Y-123890000D01*
X187600000Y-122180000D01*
X187910000Y-120710000D01*
X188190000Y-118890000D01*
X188240000Y-117580000D01*
X188270000Y-115680000D01*
X188120000Y-114060000D01*
X187760000Y-112170000D01*
X187200000Y-110350000D01*
X186660000Y-109010000D01*
X185610000Y-106860000D01*
X184660000Y-105260000D01*
X183790000Y-104000000D01*
X182880000Y-102880000D01*
X181950000Y-101860000D01*
X180960000Y-100920000D01*
X179910000Y-100100000D01*
X178820000Y-99330000D01*
X177770000Y-98720000D01*
X176490000Y-98150000D01*
X175630000Y-97840000D01*
X174790000Y-97560000D01*
X173300000Y-97220000D01*
X171370000Y-96900000D01*
X171070000Y-96850000D01*
X170950000Y-96690000D01*
X170600000Y-95810000D01*
X169870000Y-94420000D01*
X168600000Y-92720000D01*
X168790000Y-92700000D01*
X171860000Y-92350000D01*
X173260000Y-92300000D01*
X174940000Y-92410000D01*
G36*
X174940000Y-92410000D02*
G01*
X177290000Y-92810000D01*
X179590000Y-93400000D01*
X181320000Y-94070000D01*
X182580000Y-94620000D01*
X183780000Y-95270000D01*
X185440000Y-96210000D01*
X186710000Y-97130000D01*
X188240000Y-98330000D01*
X189770000Y-99810000D01*
X191200000Y-101350000D01*
X192370000Y-102830000D01*
X193150000Y-103980000D01*
X193850000Y-105040000D01*
X194820000Y-106810000D01*
X195200000Y-107560000D01*
X195690000Y-108870000D01*
X196060000Y-110110000D01*
X196360000Y-111530000D01*
X196530000Y-113160000D01*
X196470000Y-114160000D01*
X196380000Y-115840000D01*
X196200000Y-117290000D01*
X195920000Y-119080000D01*
X195550000Y-120630000D01*
X195400000Y-121180000D01*
X195100000Y-122140000D01*
X194570000Y-123550000D01*
X193920000Y-125050000D01*
X193160000Y-126470000D01*
X192340000Y-127730000D01*
X191310000Y-129350000D01*
X190730000Y-129930000D01*
X189330000Y-131420000D01*
X187870000Y-132890000D01*
X186540000Y-134060000D01*
X185240000Y-135160000D01*
X183440000Y-136530000D01*
X182140000Y-137480000D01*
X180710000Y-138510000D01*
X179840000Y-139130000D01*
X179770000Y-138910000D01*
X179700000Y-138150000D01*
X179680000Y-137310000D01*
X179700000Y-136740000D01*
X179770000Y-136120000D01*
X179980000Y-135390000D01*
X180420000Y-134280000D01*
X181050000Y-133100000D01*
X182300000Y-131360000D01*
X183380000Y-129930000D01*
X184490000Y-128570000D01*
X185380000Y-127280000D01*
X186180000Y-125870000D01*
X186620000Y-124920000D01*
X187050000Y-123890000D01*
X187600000Y-122180000D01*
X187910000Y-120710000D01*
X188190000Y-118890000D01*
X188240000Y-117580000D01*
X188270000Y-115680000D01*
X188120000Y-114060000D01*
X187760000Y-112170000D01*
X187200000Y-110350000D01*
X186660000Y-109010000D01*
X185610000Y-106860000D01*
X184660000Y-105260000D01*
X183790000Y-104000000D01*
X182880000Y-102880000D01*
X181950000Y-101860000D01*
X180960000Y-100920000D01*
X179910000Y-100100000D01*
X178820000Y-99330000D01*
X177770000Y-98720000D01*
X176490000Y-98150000D01*
X175630000Y-97840000D01*
X174790000Y-97560000D01*
X173300000Y-97220000D01*
X171370000Y-96900000D01*
X171070000Y-96850000D01*
X170950000Y-96690000D01*
X170600000Y-95810000D01*
X169870000Y-94420000D01*
X168600000Y-92720000D01*
X168790000Y-92700000D01*
X171860000Y-92350000D01*
X173260000Y-92300000D01*
X174940000Y-92410000D01*
G37*
X166990000Y-82790000D02*
X168480000Y-82870000D01*
X171460000Y-83290000D01*
X173530000Y-83760000D01*
X175520000Y-84310000D01*
X178470000Y-85370000D01*
X180470000Y-86280000D01*
X182130000Y-87180000D01*
X183970000Y-88330000D01*
X185460000Y-89460000D01*
X187380000Y-91030000D01*
X188660000Y-92280000D01*
X189980000Y-93780000D01*
X191120000Y-95270000D01*
X192360000Y-97210000D01*
X192750000Y-97870000D01*
X193950000Y-100150000D01*
X193100000Y-99210000D01*
X192030000Y-98040000D01*
X190440000Y-96530000D01*
X189390000Y-95660000D01*
X187860000Y-94480000D01*
X186830000Y-93780000D01*
X185410000Y-92910000D01*
X184040000Y-92170000D01*
X182480000Y-91460000D01*
X180950000Y-90880000D01*
X179450000Y-90410000D01*
X177890000Y-90020000D01*
X176260000Y-89740000D01*
X175160000Y-89630000D01*
X174110000Y-89550000D01*
X173400000Y-89540000D01*
X172250000Y-89550000D01*
X170870000Y-89620000D01*
X169850000Y-89730000D01*
X168220000Y-90000000D01*
X167320000Y-90210000D01*
X166640000Y-90360000D01*
X165930000Y-90510000D01*
X165080000Y-90170000D01*
X164090000Y-89740000D01*
X163210000Y-89450000D01*
X162100000Y-89140000D01*
X161160000Y-88990000D01*
X160100000Y-88930000D01*
X159420000Y-88910000D01*
X158480000Y-88930000D01*
X157720000Y-88960000D01*
X156880000Y-89100000D01*
X155830000Y-89420000D01*
X154500000Y-90040000D01*
X153500000Y-90640000D01*
X152680000Y-91220000D01*
X151970000Y-91880000D01*
X151130000Y-92830000D01*
X150590000Y-93570000D01*
X150090000Y-94490000D01*
X149730000Y-95370000D01*
X149290000Y-96660000D01*
X149110000Y-97400000D01*
X148700000Y-97320000D01*
X147210000Y-96910000D01*
X146080000Y-96630000D01*
X145250000Y-96480000D01*
X144480000Y-96380000D01*
X143550000Y-96280000D01*
X142780000Y-96240000D01*
X141620000Y-96220000D01*
X140270000Y-96260000D01*
X139550000Y-96340000D01*
X138490000Y-96530000D01*
X137790000Y-96690000D01*
X136640000Y-97040000D01*
X135450000Y-97480000D01*
X134280000Y-98010000D01*
X132850000Y-98810000D01*
X132620000Y-98960000D01*
X132400000Y-99050000D01*
X132340000Y-99040000D01*
X132330000Y-98990000D01*
X132360000Y-98770000D01*
X132570000Y-98250000D01*
X133070000Y-97240000D01*
X134410000Y-94760000D01*
X136750000Y-91810000D01*
X138180000Y-90410000D01*
X138740000Y-89930000D01*
X139920000Y-88910000D01*
X141340000Y-87880000D01*
X142840000Y-87010000D01*
X144460000Y-86180000D01*
X146840000Y-85210000D01*
X150050000Y-84280000D01*
X153300000Y-83580000D01*
X156010000Y-83100000D01*
X160020000Y-82800000D01*
X162970000Y-82750000D01*
X166990000Y-82790000D01*
G36*
X166990000Y-82790000D02*
G01*
X168480000Y-82870000D01*
X171460000Y-83290000D01*
X173530000Y-83760000D01*
X175520000Y-84310000D01*
X178470000Y-85370000D01*
X180470000Y-86280000D01*
X182130000Y-87180000D01*
X183970000Y-88330000D01*
X185460000Y-89460000D01*
X187380000Y-91030000D01*
X188660000Y-92280000D01*
X189980000Y-93780000D01*
X191120000Y-95270000D01*
X192360000Y-97210000D01*
X192750000Y-97870000D01*
X193950000Y-100150000D01*
X193100000Y-99210000D01*
X192030000Y-98040000D01*
X190440000Y-96530000D01*
X189390000Y-95660000D01*
X187860000Y-94480000D01*
X186830000Y-93780000D01*
X185410000Y-92910000D01*
X184040000Y-92170000D01*
X182480000Y-91460000D01*
X180950000Y-90880000D01*
X179450000Y-90410000D01*
X177890000Y-90020000D01*
X176260000Y-89740000D01*
X175160000Y-89630000D01*
X174110000Y-89550000D01*
X173400000Y-89540000D01*
X172250000Y-89550000D01*
X170870000Y-89620000D01*
X169850000Y-89730000D01*
X168220000Y-90000000D01*
X167320000Y-90210000D01*
X166640000Y-90360000D01*
X165930000Y-90510000D01*
X165080000Y-90170000D01*
X164090000Y-89740000D01*
X163210000Y-89450000D01*
X162100000Y-89140000D01*
X161160000Y-88990000D01*
X160100000Y-88930000D01*
X159420000Y-88910000D01*
X158480000Y-88930000D01*
X157720000Y-88960000D01*
X156880000Y-89100000D01*
X155830000Y-89420000D01*
X154500000Y-90040000D01*
X153500000Y-90640000D01*
X152680000Y-91220000D01*
X151970000Y-91880000D01*
X151130000Y-92830000D01*
X150590000Y-93570000D01*
X150090000Y-94490000D01*
X149730000Y-95370000D01*
X149290000Y-96660000D01*
X149110000Y-97400000D01*
X148700000Y-97320000D01*
X147210000Y-96910000D01*
X146080000Y-96630000D01*
X145250000Y-96480000D01*
X144480000Y-96380000D01*
X143550000Y-96280000D01*
X142780000Y-96240000D01*
X141620000Y-96220000D01*
X140270000Y-96260000D01*
X139550000Y-96340000D01*
X138490000Y-96530000D01*
X137790000Y-96690000D01*
X136640000Y-97040000D01*
X135450000Y-97480000D01*
X134280000Y-98010000D01*
X132850000Y-98810000D01*
X132620000Y-98960000D01*
X132400000Y-99050000D01*
X132340000Y-99040000D01*
X132330000Y-98990000D01*
X132360000Y-98770000D01*
X132570000Y-98250000D01*
X133070000Y-97240000D01*
X134410000Y-94760000D01*
X136750000Y-91810000D01*
X138180000Y-90410000D01*
X138740000Y-89930000D01*
X139920000Y-88910000D01*
X141340000Y-87880000D01*
X142840000Y-87010000D01*
X144460000Y-86180000D01*
X146840000Y-85210000D01*
X150050000Y-84280000D01*
X153300000Y-83580000D01*
X156010000Y-83100000D01*
X160020000Y-82800000D01*
X162970000Y-82750000D01*
X166990000Y-82790000D01*
G37*
X173420000Y-100020000D02*
X175580000Y-100820000D01*
X177510000Y-101820000D01*
X179280000Y-103220000D01*
X180640000Y-104550000D01*
X181710000Y-106010000D01*
X182770000Y-107590000D01*
X183630000Y-109220000D01*
X184140000Y-110460000D01*
X184630000Y-111790000D01*
X184970000Y-112950000D01*
X185250000Y-114360000D01*
X185440000Y-115610000D01*
X185470000Y-117690000D01*
X185400000Y-118720000D01*
X185220000Y-119920000D01*
X184920000Y-121250000D01*
X184490000Y-122530000D01*
X184020000Y-123760000D01*
X183440000Y-125020000D01*
X182780000Y-126130000D01*
X182140000Y-127090000D01*
X181260000Y-128190000D01*
X180510000Y-129150000D01*
X179740000Y-130110000D01*
X179360000Y-130610000D01*
X178960000Y-131150000D01*
X178530000Y-131820000D01*
X178160000Y-132460000D01*
X177880000Y-133010000D01*
X177630000Y-133570000D01*
X177370000Y-134220000D01*
X177200000Y-134740000D01*
X177090000Y-135250000D01*
X177010000Y-135790000D01*
X176940000Y-136580000D01*
X176930000Y-137310000D01*
X176910000Y-138360000D01*
X177020000Y-139550000D01*
X177220000Y-140510000D01*
X177310000Y-140950000D01*
X176850000Y-141270000D01*
X176050000Y-141840000D01*
X175320000Y-142380000D01*
X174680000Y-142840000D01*
X173900000Y-143420000D01*
X173060000Y-144050000D01*
X172140000Y-144800000D01*
X171350000Y-145480000D01*
X170510000Y-146240000D01*
X169360000Y-147310000D01*
X168410000Y-148230000D01*
X167390000Y-149250000D01*
X166980000Y-148910000D01*
X166300000Y-148310000D01*
X165910000Y-147930000D01*
X165360000Y-147260000D01*
X164900000Y-146610000D01*
X164490000Y-145910000D01*
X164130000Y-145160000D01*
X163820000Y-144390000D01*
X163590000Y-143620000D01*
X163480000Y-143090000D01*
X163430000Y-142550000D01*
X163410000Y-141920000D01*
X163430000Y-141220000D01*
X163530000Y-140520000D01*
X163690000Y-139850000D01*
X163930000Y-139110000D01*
X164520000Y-137780000D01*
X165110000Y-136640000D01*
X166040000Y-135110000D01*
X167000000Y-133740000D01*
X168260000Y-132030000D01*
X169140000Y-130840000D01*
X170850000Y-128600000D01*
X171920000Y-127150000D01*
X172580000Y-126240000D01*
X173260000Y-125220000D01*
X174000000Y-123940000D01*
X174470000Y-123070000D01*
X175070000Y-121730000D01*
X175480000Y-120630000D01*
X175810000Y-119520000D01*
X176020000Y-118530000D01*
X176260000Y-117220000D01*
X176260000Y-115960000D01*
X176230000Y-114990000D01*
X176160000Y-113830000D01*
X176110000Y-113440000D01*
X175960000Y-112540000D01*
X175750000Y-111710000D01*
X175560000Y-111090000D01*
X175240000Y-110190000D01*
X174960000Y-109570000D01*
X174330000Y-108380000D01*
X173650000Y-107340000D01*
X172860000Y-106330000D01*
X171970000Y-105430000D01*
X171000000Y-104600000D01*
X170560000Y-104190000D01*
X170620000Y-103790000D01*
X170720000Y-103380000D01*
X170730000Y-103380000D01*
X170770000Y-103200000D01*
X170940000Y-102610000D01*
X171080000Y-101970000D01*
X171220000Y-101140000D01*
X171310000Y-100310000D01*
X171330000Y-99900000D01*
X171360000Y-99740000D01*
X173420000Y-100020000D01*
G36*
X173420000Y-100020000D02*
G01*
X175580000Y-100820000D01*
X177510000Y-101820000D01*
X179280000Y-103220000D01*
X180640000Y-104550000D01*
X181710000Y-106010000D01*
X182770000Y-107590000D01*
X183630000Y-109220000D01*
X184140000Y-110460000D01*
X184630000Y-111790000D01*
X184970000Y-112950000D01*
X185250000Y-114360000D01*
X185440000Y-115610000D01*
X185470000Y-117690000D01*
X185400000Y-118720000D01*
X185220000Y-119920000D01*
X184920000Y-121250000D01*
X184490000Y-122530000D01*
X184020000Y-123760000D01*
X183440000Y-125020000D01*
X182780000Y-126130000D01*
X182140000Y-127090000D01*
X181260000Y-128190000D01*
X180510000Y-129150000D01*
X179740000Y-130110000D01*
X179360000Y-130610000D01*
X178960000Y-131150000D01*
X178530000Y-131820000D01*
X178160000Y-132460000D01*
X177880000Y-133010000D01*
X177630000Y-133570000D01*
X177370000Y-134220000D01*
X177200000Y-134740000D01*
X177090000Y-135250000D01*
X177010000Y-135790000D01*
X176940000Y-136580000D01*
X176930000Y-137310000D01*
X176910000Y-138360000D01*
X177020000Y-139550000D01*
X177220000Y-140510000D01*
X177310000Y-140950000D01*
X176850000Y-141270000D01*
X176050000Y-141840000D01*
X175320000Y-142380000D01*
X174680000Y-142840000D01*
X173900000Y-143420000D01*
X173060000Y-144050000D01*
X172140000Y-144800000D01*
X171350000Y-145480000D01*
X170510000Y-146240000D01*
X169360000Y-147310000D01*
X168410000Y-148230000D01*
X167390000Y-149250000D01*
X166980000Y-148910000D01*
X166300000Y-148310000D01*
X165910000Y-147930000D01*
X165360000Y-147260000D01*
X164900000Y-146610000D01*
X164490000Y-145910000D01*
X164130000Y-145160000D01*
X163820000Y-144390000D01*
X163590000Y-143620000D01*
X163480000Y-143090000D01*
X163430000Y-142550000D01*
X163410000Y-141920000D01*
X163430000Y-141220000D01*
X163530000Y-140520000D01*
X163690000Y-139850000D01*
X163930000Y-139110000D01*
X164520000Y-137780000D01*
X165110000Y-136640000D01*
X166040000Y-135110000D01*
X167000000Y-133740000D01*
X168260000Y-132030000D01*
X169140000Y-130840000D01*
X170850000Y-128600000D01*
X171920000Y-127150000D01*
X172580000Y-126240000D01*
X173260000Y-125220000D01*
X174000000Y-123940000D01*
X174470000Y-123070000D01*
X175070000Y-121730000D01*
X175480000Y-120630000D01*
X175810000Y-119520000D01*
X176020000Y-118530000D01*
X176260000Y-117220000D01*
X176260000Y-115960000D01*
X176230000Y-114990000D01*
X176160000Y-113830000D01*
X176110000Y-113440000D01*
X175960000Y-112540000D01*
X175750000Y-111710000D01*
X175560000Y-111090000D01*
X175240000Y-110190000D01*
X174960000Y-109570000D01*
X174330000Y-108380000D01*
X173650000Y-107340000D01*
X172860000Y-106330000D01*
X171970000Y-105430000D01*
X171000000Y-104600000D01*
X170560000Y-104190000D01*
X170620000Y-103790000D01*
X170720000Y-103380000D01*
X170730000Y-103380000D01*
X170770000Y-103200000D01*
X170940000Y-102610000D01*
X171080000Y-101970000D01*
X171220000Y-101140000D01*
X171310000Y-100310000D01*
X171330000Y-99900000D01*
X171360000Y-99740000D01*
X173420000Y-100020000D01*
G37*
X169070000Y-106690000D02*
X169320000Y-106880000D01*
X169510000Y-106990000D01*
X170150000Y-107550000D01*
X170640000Y-108020000D01*
X170910000Y-108310000D01*
X171140000Y-108610000D01*
X171700000Y-109440000D01*
X172210000Y-110350000D01*
X172620000Y-111280000D01*
X173000000Y-112340000D01*
X173210000Y-113280000D01*
X173390000Y-114330000D01*
X173460000Y-115440000D01*
X173430000Y-116470000D01*
X173310000Y-117550000D01*
X173120000Y-118570000D01*
X172820000Y-119660000D01*
X172460000Y-120620000D01*
X172090000Y-121450000D01*
X171560000Y-122490000D01*
X171050000Y-123390000D01*
X170710000Y-123940000D01*
X170460000Y-124310000D01*
X170010000Y-124950000D01*
X169400000Y-125820000D01*
X168730000Y-126730000D01*
X168230000Y-127380000D01*
X167590000Y-128240000D01*
X166920000Y-129100000D01*
X166210000Y-130050000D01*
X165410000Y-131100000D01*
X164760000Y-131990000D01*
X164310000Y-132620000D01*
X163980000Y-133100000D01*
X163740000Y-133460000D01*
X163520000Y-133810000D01*
X163240000Y-134270000D01*
X163050000Y-134600000D01*
X162900000Y-134870000D01*
X162690000Y-135250000D01*
X162550000Y-135510000D01*
X162420000Y-135760000D01*
X162300000Y-135980000D01*
X162160000Y-136250000D01*
X162020000Y-136550000D01*
X161770000Y-137040000D01*
X161510000Y-137640000D01*
X161330000Y-138090000D01*
X161230000Y-138350000D01*
X161110000Y-138680000D01*
X161020000Y-138940000D01*
X160910000Y-139290000D01*
X160810000Y-139700000D01*
X160780000Y-139840000D01*
X160750000Y-140050000D01*
X160710000Y-140310000D01*
X160650000Y-141100000D01*
X160620000Y-141860000D01*
X160640000Y-143090000D01*
X160700000Y-143690000D01*
X160810000Y-144360000D01*
X161060000Y-145140000D01*
X161350000Y-145860000D01*
X161910000Y-147010000D01*
X162330000Y-147720000D01*
X162650000Y-148220000D01*
X163030000Y-148760000D01*
X163330000Y-149180000D01*
X163790000Y-149700000D01*
X164530000Y-150470000D01*
X165130000Y-151010000D01*
X165750000Y-151480000D01*
X165560000Y-151820000D01*
X165230000Y-152330000D01*
X164640000Y-153320000D01*
X164180000Y-154260000D01*
X163830000Y-155040000D01*
X163450000Y-156040000D01*
X163270000Y-156610000D01*
X163030000Y-157510000D01*
X162870000Y-158200000D01*
X162570000Y-157990000D01*
X161340000Y-157150000D01*
X160260000Y-156400000D01*
X159340000Y-155730000D01*
X157570000Y-154280000D01*
X155850000Y-152680000D01*
X154860000Y-151580000D01*
X153230000Y-149650000D01*
X151760000Y-147300000D01*
X151040000Y-145840000D01*
X150330000Y-143490000D01*
X150170000Y-142200000D01*
X150080000Y-140780000D01*
X150130000Y-139190000D01*
X150280000Y-137930000D01*
X150490000Y-136950000D01*
X150850000Y-135550000D01*
X151290000Y-134270000D01*
X151830000Y-133000000D01*
X152400000Y-131750000D01*
X153260000Y-130220000D01*
X153990000Y-128980000D01*
X155810000Y-126710000D01*
X157410000Y-125080000D01*
X159160000Y-123580000D01*
X160260000Y-122540000D01*
X161400000Y-121450000D01*
X162450000Y-120380000D01*
X163400000Y-119310000D01*
X164360000Y-117960000D01*
X165030000Y-116650000D01*
X165520000Y-115220000D01*
X165750000Y-114250000D01*
X165910000Y-113180000D01*
X165980000Y-112090000D01*
X165910000Y-110980000D01*
X165910000Y-110430000D01*
X165830000Y-109780000D01*
X165780000Y-109120000D01*
X165750000Y-108740000D01*
X166480000Y-108260000D01*
X167600000Y-107530000D01*
X168110000Y-107170000D01*
X168450000Y-106890000D01*
X168640000Y-106730000D01*
X168840000Y-106620000D01*
X169070000Y-106690000D01*
G36*
X169070000Y-106690000D02*
G01*
X169320000Y-106880000D01*
X169510000Y-106990000D01*
X170150000Y-107550000D01*
X170640000Y-108020000D01*
X170910000Y-108310000D01*
X171140000Y-108610000D01*
X171700000Y-109440000D01*
X172210000Y-110350000D01*
X172620000Y-111280000D01*
X173000000Y-112340000D01*
X173210000Y-113280000D01*
X173390000Y-114330000D01*
X173460000Y-115440000D01*
X173430000Y-116470000D01*
X173310000Y-117550000D01*
X173120000Y-118570000D01*
X172820000Y-119660000D01*
X172460000Y-120620000D01*
X172090000Y-121450000D01*
X171560000Y-122490000D01*
X171050000Y-123390000D01*
X170710000Y-123940000D01*
X170460000Y-124310000D01*
X170010000Y-124950000D01*
X169400000Y-125820000D01*
X168730000Y-126730000D01*
X168230000Y-127380000D01*
X167590000Y-128240000D01*
X166920000Y-129100000D01*
X166210000Y-130050000D01*
X165410000Y-131100000D01*
X164760000Y-131990000D01*
X164310000Y-132620000D01*
X163980000Y-133100000D01*
X163740000Y-133460000D01*
X163520000Y-133810000D01*
X163240000Y-134270000D01*
X163050000Y-134600000D01*
X162900000Y-134870000D01*
X162690000Y-135250000D01*
X162550000Y-135510000D01*
X162420000Y-135760000D01*
X162300000Y-135980000D01*
X162160000Y-136250000D01*
X162020000Y-136550000D01*
X161770000Y-137040000D01*
X161510000Y-137640000D01*
X161330000Y-138090000D01*
X161230000Y-138350000D01*
X161110000Y-138680000D01*
X161020000Y-138940000D01*
X160910000Y-139290000D01*
X160810000Y-139700000D01*
X160780000Y-139840000D01*
X160750000Y-140050000D01*
X160710000Y-140310000D01*
X160650000Y-141100000D01*
X160620000Y-141860000D01*
X160640000Y-143090000D01*
X160700000Y-143690000D01*
X160810000Y-144360000D01*
X161060000Y-145140000D01*
X161350000Y-145860000D01*
X161910000Y-147010000D01*
X162330000Y-147720000D01*
X162650000Y-148220000D01*
X163030000Y-148760000D01*
X163330000Y-149180000D01*
X163790000Y-149700000D01*
X164530000Y-150470000D01*
X165130000Y-151010000D01*
X165750000Y-151480000D01*
X165560000Y-151820000D01*
X165230000Y-152330000D01*
X164640000Y-153320000D01*
X164180000Y-154260000D01*
X163830000Y-155040000D01*
X163450000Y-156040000D01*
X163270000Y-156610000D01*
X163030000Y-157510000D01*
X162870000Y-158200000D01*
X162570000Y-157990000D01*
X161340000Y-157150000D01*
X160260000Y-156400000D01*
X159340000Y-155730000D01*
X157570000Y-154280000D01*
X155850000Y-152680000D01*
X154860000Y-151580000D01*
X153230000Y-149650000D01*
X151760000Y-147300000D01*
X151040000Y-145840000D01*
X150330000Y-143490000D01*
X150170000Y-142200000D01*
X150080000Y-140780000D01*
X150130000Y-139190000D01*
X150280000Y-137930000D01*
X150490000Y-136950000D01*
X150850000Y-135550000D01*
X151290000Y-134270000D01*
X151830000Y-133000000D01*
X152400000Y-131750000D01*
X153260000Y-130220000D01*
X153990000Y-128980000D01*
X155810000Y-126710000D01*
X157410000Y-125080000D01*
X159160000Y-123580000D01*
X160260000Y-122540000D01*
X161400000Y-121450000D01*
X162450000Y-120380000D01*
X163400000Y-119310000D01*
X164360000Y-117960000D01*
X165030000Y-116650000D01*
X165520000Y-115220000D01*
X165750000Y-114250000D01*
X165910000Y-113180000D01*
X165980000Y-112090000D01*
X165910000Y-110980000D01*
X165910000Y-110430000D01*
X165830000Y-109780000D01*
X165780000Y-109120000D01*
X165750000Y-108740000D01*
X166480000Y-108260000D01*
X167600000Y-107530000D01*
X168110000Y-107170000D01*
X168450000Y-106890000D01*
X168640000Y-106730000D01*
X168840000Y-106620000D01*
X169070000Y-106690000D01*
G37*
D12*
%TO.C,J1*%
X137780000Y-145080000D02*
X137780000Y-143700000D01*
X139160000Y-145080000D02*
X137780000Y-145080000D01*
X140430000Y-142320000D02*
X145620000Y-142320000D01*
X140430000Y-145080000D02*
X140430000Y-142320000D01*
X140430000Y-145080000D02*
X145620000Y-145080000D01*
X145620000Y-145080000D02*
X145620000Y-142320000D01*
%TO.C,SW1*%
X137790000Y-138270000D02*
X139120000Y-138270000D01*
X137790000Y-139600000D02*
X137790000Y-138270000D01*
X140390000Y-138270000D02*
X145530000Y-138270000D01*
X140390000Y-140930000D02*
X140390000Y-138270000D01*
X140390000Y-140930000D02*
X145530000Y-140930000D01*
X145530000Y-140930000D02*
X145530000Y-138270000D01*
%TD*%
M02*
